<?xml version="1.0" encoding="utf-8"?>
<!-- Generator: Adobe Illustrator 25.4.1, SVG Export Plug-In . SVG Version: 6.00 Build 0)  -->
<svg version="1.2" baseProfile="tiny" id="Layer_1" xmlns="http://www.w3.org/2000/svg" xmlns:xlink="http://www.w3.org/1999/xlink"
	 x="0px" y="0px" viewBox="0 0 3544.6 1995.7" overflow="visible" xml:space="preserve">
<g>
	<path fill="#F2F2F3" d="M2132.6,832.8c0.3,6-2.5,9.4-4.6,12.9c-9.1,15-21.7,26.8-34.2,38.8c-6,5.7-12.7,10.7-18.8,16.4
		c-3.9,3.7-7.8,4.1-12.7,2.7c-5.5-1.6-10.5-4-15.7-6.2c-3.5-1.4-3.2-3.5-1.7-6.3c4.8-8.8,9.9-16.4,20.6-20.2
		c20.7-7.4,39-19.9,57.4-31.8C2125.7,837.3,2128.7,835.4,2132.6,832.8z"/>
	<path fill="#FFFFFF" d="M2135.5,775.7c6-10.3,14-19.2,21.3-28.6c10.4-13.5,17.6-28.1,19.1-45c0.2-2.5,1-4.9,1.2-7.4
		c0.5-4.9,3.1-5.8,7.6-4.5c21.1,5.7,42.6,9.3,67,10.9c-35.6,31.6-70.6,60.3-114.8,76.2C2136.4,776.6,2136,776.1,2135.5,775.7z"/>
	<path fill="#020202" d="M1450.5,1969.6c-10.7,2.4-21.3,5.2-30.3,11.7c-2.9,2.1-6.1,2.4-9.3,3c-12.2,2.2-23.8,6-35.4,10.2
		c-5.9,2.1-1.7-4.4-4.2-5.4c-2.6-1.1-4.9,0.5-6.2,1.9c-5.3,5.5-11.9,4.6-18.4,4.8c-3.5,0.1-6.4-0.5-8.7-3.5c-3.5-4.5-8.5-5.7-14-6
		c-8.6-0.4-10.7-3-13.5-11c-3.7-10.6-4.3-21.8-6.9-32.6c-1.2-4.9,1.4-9.8,3.2-14.3c3.5-8.6,8.4-15.9,17.4-20.6
		c6.3-3.3,12-7.8,18.7-10.2c-0.7-3.2-3.4-3.6-5-5.3c-3.9-4.3-5.7-8.1-4.6-14.9c2.1-13.8,5.4-27.4,7.6-41.1c0.2-1.3,0.1-2.6,0.9-3.7
		c8.6-11.5,9.6-25.8,14.8-38.6c7.1-17.6,13.6-35.4,21.7-52.7c15.2-32.4,30.1-65,46.6-96.8c8.7-16.8,17.3-33.5,25.4-50.6
		c6.9-14.7,12.9-29.8,19.2-44.8c4.8-11.6,10.2-23,15.5-34.3c6.5-13.7,12.4-27.7,17.9-42.2c-5.4-1.5-10-3.3-14.8-4
		c-17-2.6-28.5-13.5-38.5-25.9c-4.1-5.1-9.3-9.5-12.4-15.4c-4.6-8.7-10.1-16.9-12.7-26.4c-2-7.2-0.6-13.1,4-19.5
		c9.6-13,21.6-21.2,37.9-22.5c6.6-0.5,11.4-5.1,17.1-7.6c8.2-3.5,16.8-5.7,25.5-7.4c5.2-1,10.4-2.5,14.8-5.5
		c5.9-3.9,12.5-5.7,19.2-7.5c13.7-3.5,27.6-6.7,41.2-10.6c5.9-1.7,12.1-2.9,17.1-7.6c2.1-2,6-2.4,9.2-3.2
		c29.5-8,59.5-13.7,89.6-18.5c13.6-2.2,27.6-2.8,41.2-4.8c28.8-4.3,57.6-3.2,86.4-3.4c15.9-0.1,31.5,2.9,46.9,6.3
		c12.2,2.7,24.5,5.3,35.5,11.9c14.3,8.7,25.3,19.9,31,36.1c1.2,3.3,1.3,6.4,1.4,9.7c0.1,16.1-1.7,32-3.1,48
		c-0.8,8.7-0.6,17.5-2.7,26c-2.8,11.6-8.7,21.3-17.6,29.4c-9.5,8.7-20.1,15.3-31.2,21.9c-10.5,6.2-19.8,15.1-27.1,25.5
		c-1.2,1.7-2,3.4-3.9,4.3c-16.4,8-30.2,20.6-47.2,27.4c-6.8,2.7-10.8,8.8-15.7,13.6c-4.2,4.1-8.5,7.5-14.8,6.9
		c-3.2-0.3-6.1,1-8.3,2.9c-5.6,4.9-12.1,7.7-19.1,9.5c-6.3,1.6-9.4,7.1-13.2,11.5c-2.7,1.9-6,2-9.3,2.8c2.2,4.1,6.1,3.9,9.6,4.6
		c12.2,6,24.5,11.8,36.7,17.9c20.3,10.1,39.2,22.4,54.3,39.5c15.2,17.2,27.1,36.6,31.9,59.3c2.1,9.9,2.7,20.2,4.6,30.2
		c0.2,0.9,0.3,1.9,2.5,1.9c3-6.8,6.3-13.8,9.1-21c10.5-26.6,24.9-51.3,37-77c9.5-20.1,21.4-38.6,32.3-57.8
		c10.9-19.2,23-37.8,34.5-56.8c11.5-19,22.8-38,34-57.2c5.5-9.4,10.7-19,16.1-28.6c0.3-0.6,0.7-1.2,0.9-1.8
		c4-12.1,10.4-22.4,18.8-32.1c7.7-8.9,22.7-14.2,32.8-4.3c5.2,5.1,10.9,9.6,14.9,16c4.4,7,7.7,7.8,16,6.1c30.7-6.2,61.2-13,92-18.2
		c22.4-3.8,44.8-7.6,67.4-10.1c23.3-2.6,46.6-5.4,70.1-5.5c5.8,0,11.2,1.6,16.1,4.3c4.9,2.7,5.7,5.1,2.6,10.2
		c-2.7,4.3,0.4,9.6-4.2,13.8c-2.1,1.9-2.2,6.3-6.4,7.1c-1.2,0.2-2.1,1.7-2.1,3.1c0.2,7.9-3.9,14.4-6.2,21.5c-1.6,5-4.5,9.1-9.6,11.9
		c-10.2,5.6-20.1,12.4-31.7,13.3c-14.2,1.1-27.5,6.6-41.9,6.8c-10.7,0.1-21.3,3.9-32,5.7c-15.8,2.7-31.4,6.6-47,10.4
		c-18.3,4.5-36.4,9.9-54.3,15.8c-5,1.6-10.1,3-15.3,3.7c-6.6,0.9-10.5,4.9-14.1,10c-6.1,8.6-9.2,18.9-15.6,27.4
		c-3.8,5.1-7.6,10-12.2,14.5c-18.5,18-32.4,39.3-43.5,62.5c-0.7,1.5-1.2,3-2.3,5.6c11.1-1.2,21.3-2.4,31.5-3.5
		c10.2-1.1,20.7-0.7,30.1-5.5c-1.4-4.1-4.1-3.7-6.1-4.7c-8.3-4.4-9.2-14.9-1.7-20.4c3.2-2.3,6.9-4.2,10.6-5.3
		c19.5-5.7,39-11.3,59.3-14.1c15.6-2.2,31.3-4.5,46.9-6.8c7.8-1.2,15.8-1,23.7-2c6.2-0.8,12.6,0.2,17.9-4.5c1.8-1.6,4.3-1.3,6.7-0.4
		c8.7,3.4,17.9,4.3,27.2,4.8c6.1,0.3,11.6,2.9,16.8,5.8c3.1,1.7,7.7,15.3,6.9,18.9c-0.6,2.7-2.4,3.9-5,3.9
		c-8.5,0.1-17.1-0.3-25.6,0.3c-7.2,0.5-14.3,2-21.6,1.7c-2.1-0.1-4,1.2-4.3,3.4c-0.6,4.7-3.8,5.2-7.7,6.2c-14.7,3.7-29.7,5.1-44.7,7
		c-10.4,1.3-15.3,2.4-25,7.9c4.2,5.8,11.6,7.5,16.2,12.7c4.9,5.6,4.8,10.7-1.1,15.2c-4.2,3.2-8.7,6.2-13.7,7.9
		c-27.1,9.3-54.5,17.3-82.8,21.6c-21.8,3.4-42.2,11.3-62.5,19.6c-8.8,3.6-18,6.4-27.2,8.8c-4.9,1.3-8.2,3.6-10.8,7.8
		c-6.9,11.1-10.6,23.5-15.7,35.3c-4.6,10.6-7.7,21.8-12.1,32.5c-2,4.8,1.1,8.1,1.4,12c13.1,2.3,24.8-2.6,35.9-6.9
		c36.5-13.9,73.5-26.2,110.5-38.5c19.4-6.5,38.8-13.3,58.3-19.4c13.2-4.1,26.6-8.5,40.2-10.5c10.4-1.5,20.6-5,31.2-4.4
		c3.8,0.2,6.3-1.7,8.5-4.3c4.9-5.8,11-7.3,18.5-7.7c16.5-0.9,32.5-4.8,48-10.9c1.2-0.5,2.4-1.5,3.6-1.6
		c14.7-0.8,20.9-11.6,27.8-22.4c11.6-18.1,24.2-35.5,36-53.4c20.7-31.3,42.9-61.6,65.3-91.8c19.7-26.5,38.9-53.2,58.2-80
		c2.4-3.3,5-6.2,7.9-9c9.7-9.6,18.1-20,23.8-32.6c1.7-3.7,5-6.1,8.7-7.9c4.2-2,8.8-3.6,12.4-6.5c7.3-5.9,15.3-7.3,24.5-8.6
		c9.8-1.4,19.4,0.1,29.1-0.9c7.5-0.8,15.6,1.1,23.3,3.3c2.8,0.8,4.8,2.4,6.1,4.7c2.9,5.5,6.9,7.7,13,5.4c1.5-0.6,3.3-0.4,4.9-0.4
		c14.8-0.5,22.8,5.9,24.5,20.7c2.2,19,5.3,38.1,3.7,57.3c-2.1,26.2-1.2,52.5-1.9,78.7c-0.3,10.4-2.1,20.9-4.4,31.2
		c-1.5,6.7-0.6,13.2-1.1,19.8c-0.3,3.7,2.1,4.7,5.1,4.2c17-2.9,34.2-4,51.4-3.8c4.3,0.1,6.6-2.7,8.4-6c7.2-12.9,18.5-23.3,23.5-37.6
		c0.3-0.9,1.2-1.6,1.9-2.3c12.8-13.5,25.6-27,38.5-40.4c9-9.3,17.8-18.7,27.4-27.3c13-11.7,26.2-23.4,41.4-32.4
		c4.6-2.7,7.7-7.2,11.9-10.6c13.3-10.5,28.9-17.8,42-28.3c8.7-6.9,18.1-11.8,27.6-17c9.6-5.2,17.5-13,27.5-17.7
		c7.9-3.8,15.8-6.2,24.8-5.9c15.2,0.5,30.6-1.1,45.3,4c9.7,3.3,20.8,3.1,28.8,10.9c0.4,0.4,1.2,0.5,1.9,0.5
		c13.7,1.8,24.5,9.7,34.2,18.2c6,5.2,11.3,11.3,11,22c-0.6,21.5-9.9,40.2-14.8,60.2c-0.6,2.3-1.2,4-0.3,6.6c1.9,5.7,2.9,11.2-3.4,16
		c-3,2.3-2.1,7.6-0.8,11.3c2.8,8.6,0.8,16-4.3,22.9c-0.4,0.5-1,1-1.2,1.6c-6.8,16.3-22,18.9-36.6,22.1c-3.5,0.8-7.3-0.6-10.7,1.6
		c-0.5,0.3-1.4,0.5-1.9,0.3c-11.7-6-27.4-5.9-33.8-20.3c-2.1-4.7-2.5-10.1-3.3-15.3c-0.7-4.5,0.2-8.8-2-13.5
		c-1.3-2.9,1.4-7.9,2.8-11.8c2.8-7.4,6-14.7,9-22.1c0.7-1.7,2.4-3.6,0.6-5.4c-1.7-1.6-3.6-0.2-5.6,0.3
		c-21.6,5.3-39.4,17.9-57.8,29.5c-16.5,10.4-31.3,23-47.4,33.9c-14.2,9.6-29,18.5-42.7,28.7c-9.5,7.1-19.5,13.8-27.6,22.7
		c-1.8,1.9-4.2,3.7-2.6,6.8c1.2,2.4,3.6,2.5,5.9,2.9c15.2,3.1,30.2-0.4,45.2-1.4c11.6-0.7,23-2.3,34.4-4.2c13.9-2.3,28.1,0,41.6-2.3
		c15.5-2.7,30.4,0.5,45.5,0.8c18.2,0.4,34.8,7.8,50.3,17.1c4.3,2.6,8.5,7.2,10.3,11.8c5.1,13.2,14.1,23.9,21.2,35.8
		c3.4,5.8,4.9,11.5,2,17.6c-3.8,8-4.3,16.8-4.8,25.1c-1.2,17.4-8.7,30-22,41.3c-16.2,13.8-34.7,22.6-54,30.3
		c-8.6,3.4-17.4,7-25.2,11.3c-7.7,4.2-15.5,8.8-23.5,12.5c-11.7,5.4-22.4,11.9-32.9,19.2c-3.3,2.3-5.4,8.4-11.3,6.8
		c-5.1-1.4-8.3,3.8-13.1,3.8c-3.9,0-6.4,3.3-9.5,5.1c-1.4,0.8-2.9,2.2-2.3,4c2.8,7.2-3,8.1-7.2,8.9c-3.8,0.7-7.6,1.5-12,0.9
		c-5.7-0.8-12.7-2.2-18.4,1.1c-2.9,1.6-8.2,1.3-7,7.4c0.2,1.1-3.1,3.5-5.1,4.1c-5.1,1.5-9.9,3.7-15.1,4.7c-5.5,1-12.2,0.1-15.4,6.8
		c-0.1,0.2-0.6,0.3-0.9,0.4c-12.7,2.2-22.1,11-33.2,16.3c-1.9,0.9-3.1,2.3-4.5,3.7c-5.9,6.1-14.3,4.3-21.4,6.4
		c-0.6,0.2-1.7-0.8-2.3-1.5c-3.9-3.9-8.3-6.2-14.1-5.6c-5.8,0.6-7.6-4.2-8.1-8.3c-0.6-4-2-5.2-5.6-4.9c-4,0.3-6.8-0.8-8.9-4.7
		c-1.3-2.3-3.8-4.3-6.5-5.8c-7.3-4.3-10.9-12.2-13.5-19.2c-2.7-7.2,1.1-16,8.1-19.7c11.2-5.8,19.5-15.9,31.6-20.1
		c14.8-5.2,27.7-14.1,42-20.5c12-5.3,22.5-13.8,33.8-20.7c24-14.7,47.8-29.7,72.3-43.6c6.6-3.7,11.5-10.1,18.7-13
		c16.7-6.6,31.4-17.1,46.9-25.8c4-2.2,9.8-3.4,10.2-9.8c-3.4-1.2-6.9-2.1-10.1-3.6c-3.9-1.9-7.7-1.7-11.5-0.4
		c-4.3,1.5-8.5,3.6-12.9,0.2c-1.2-0.9-2.6-0.2-3.7,0.3c-9.4,4.9-20,4-30,6.4c-6.9,1.7-13.8,2.7-21.3,2.2c-7.6-0.6-15.5,2.4-23.3,3.9
		c-1.3,0.2-2.7,1.2-3.8,0.9c-9.2-1.7-18.1,0.7-27.1,1.2c-10.5,0.6-20.3,3.1-29.9,5.7c-14.2,3.9-26,0-37.1-7.6
		c-3.8-2.7-6.4-7.5-8.8-11.8c-6-10.4-13.3-20.2-16-32.2c-0.8-3.4-2.7-4.3-5.5-4.4c-10.6-0.3-21.5-1.1-30.3,6.6
		c-4.1,3.6-9.6,2.7-14,6.6c-8.4,7.4-8.9,16.6-8,25.9c0.5,4.9,1.4,9.1-2.5,12.7c-2.6,2.4-2.2,5.4-2.2,8.4c0,7-0.7,14.1,0.2,21
		c1.5,11.5-3,22.1-4.2,33.2c-0.2,2.1-2.1,3.3-3.9,4.3c-3.1-3.4-4-7.5-3.7-11.9c0.5-7.3-0.5-14.5-1.8-21.7c-0.3-1.6-0.2-3.9-2.2-3.4
		c-1.9,0.4-5.6,0.3-5.1,3.5c0.9,6.5-1.4,12.8-0.8,19.4c1.1,12.9,0.5,26,0.5,39c0,4-5.1,7-3.3,11c1.4,3.3,0.7,7,2.6,10.8
		c4.2-2.1,4.2-7.8,9.7-8.2c0.3,6.5,4.3,12.4,1.3,19.6c-0.9,2.2,1,5.6,1.4,8.5c1.4,8.9-2.4,16.9-4.2,25.1c-1.1,4.9-1.6,9.7-1.6,14.7
		c0,4.2-1,8.7-4.7,10.3c-7.5,3.3-4.2,13.3-11.2,16.4c4.2,4.8,0.7,9.9,0.6,14.9c0,3.3-1.2,2.1-3.5,1.9c-2.1-0.2-4.9,1.8-6.4,3.6
		c-4.4,5.2-9.4,4.2-14.5,2c-7.3-3.1-11.1-8.8-11.8-16.7c-0.3-3.6-0.6-7.3-0.6-10.9c-0.1-5.2,2-10.6-2.2-15.2
		c0.4-14.5-3.8-28.7-3-43.2c0.6-10.9-2.5-21.4-2.2-32.3c0.8-30.5,0-61.1,0.6-91.6c0.2-9.2-4.2-17.8-2.4-27.1
		c0.6-2.8-2.1-2.7-4.1-2.8c-6-0.2-11.7,1.9-17.5,3c-15.3,2.8-30,7.7-45,11.7c-2.6,0.7-5.6,2.8-7.7-1.4c-1-2.1-3-0.6-4.2,0.2
		c-13,7.5-28.3,8.3-42,14.1c-5,2.1-10.9,2-15.3,6c-0.6,0.6-1.8,1.5-2.5,0.2c-1.6-3.2-3.6-2.9-6.4-1.5c-3.3,1.7-6.4,3.1-8.1,6.9
		c-5.4,11.9-14.4,21.8-19.3,34.1c-3.1,7.9-7.7,15.2-15,20.6c-2.2,1.6-3.7,4.9-4.4,7.6c-1.4,5.9-4,10.5-9.1,14
		c-3.4,2.4-5.3,5.4-5.7,10.3c-0.8,9.3-7.8,15.8-13.5,22.7c-3.3,4-7.4,7-7.3,13.4c0.1,5.7-5.9,9.3-8.9,14c-4.2,6.6-8,13.8-15.5,17.7
		c-3.1,1.6-4.2,5.1-5.6,8.1c-1.9,4.1-5.1,6.1-9.5,5c-3.9-0.9-6.1,1.2-8.5,3.6c-3.9,4-8,7.9-14.4,7.3c-0.9-0.1-2.5,0.1-2.8,0.7
		c-3.8,7.8-9.6,3.7-15.3,3.3c-10.9-0.8-22-0.3-33-0.4c-5.7,0-11.3,0.2-17-0.1c-6-0.3-7.9-3.5-7.4-9.6c1.5-18.3,8-35.2,15.4-51.7
		c4.6-10.2,10.9-19.6,16.4-29.4c6.9-12.4,14-24.6,20.4-37.3c3.7-7.3,8.8-13.8,13.3-21.9c-9-2.3-16.4,2.2-24.1,1.3
		c-8.3-1-13.1,6.6-19.5,10.6c0.4,1.4,0.7,3.2,1.2,4.9c0.7,2.4,4,5,2.1,7.1c-2,2.2-5.5,4-8.6,4.3c-14.7,1.5-27.6,8.8-41.6,12.4
		c-5.2,1.3-5.9,7.9-11.5,8.2c-4.6,0.3-9.3-0.8-13.9,0.8c-2.1,0.7-4.2,1.6-6.9,2.6c2.1,4.4,7.1,0.5,9.7,4.2
		c-9,4.9-17.5,9.9-27.6,11.4c-10.4,1.6-19.7,6.9-29.9,9.2c-8.5,9.8-20.7,9.7-32,12.4c-5.7,1.3-10.5,5.2-15.7,7.8
		c-13,6.5-27.1,10.4-39.8,17.8c-12.2,7.2-25.4,12.7-39.2,16.4c-14.5,3.9-27.9,10.2-41.5,16.4c-15,6.8-31,8.9-46.6,3.9
		c-15.2-4.8-30.2-10.4-45.5-15c-4.4-1.3-8.4-4.3-11.3-7.9c-5.1-6.3-7.8-14.1-13.7-20.1c-4.1-4.2-0.6-10,0.4-15.5
		c-7.7,1.5-11.8,7.3-16.8,11.3c-24.5,19.7-51,35.6-79.9,47.8c-8.8,3.7-17.2,8.4-26.9,9.6c-1.8,0.2-3.8,1.5-5.2,2.8
		c-6.4,5.7-14.7,7-22.3,9.9c-1.5,0.6-3.7,0.5-4.7,1.5c-7,7.4-16.4,8-25.5,10.3c-7.2,1.8-14.3,5.5-19.8,10.7
		c-3.6,3.4-7.7,5.6-12.2,5.8c-9,0.5-17.4,2.2-25,7.3c-0.7,0.5-1.9,0.4-2.9,0.4c-5.5,0-11.4,2.4-16.1,2c-6.7-0.6-11.2,2.8-16.7,4
		c-5.5,1.2-10.7,3.5-16,5.4c-2.8,1-5.6,2-8.4,3.1c-1.6,0.6-3,1.4-4.8,0.9c-1.3-0.3-2.7-1-3-2.3c-0.4-1.4,0.5-2.5,1.9-3
		c2.8-1.1,5.5-2.3,8.3-3.3c6.4-2.1,11.8-5.7,17-9.8c6.5-2.1,13-4.3,19.5-6.4c2.1-0.7,2.3-2.1,1.9-3.8c-0.6-2.2-2-2-3.8-1.3
		c-6,2.5-12.1,4.8-18.2,7.2c-12.2,1-23.5,7.3-36.6,5.1c-6.5-1.1-12.9,4.4-19.4,6.9c-12.8,5.1-25.7,9.9-39.5,11.3
		c-0.1-0.9-0.6-2.7-0.4-2.7c4-1.6,6.7-5.2,11.6-5.9c4.8-0.7,10.6-1.7,13.2-7.3c0,0,0.5,0.1,0.6,0.2c0.6,1.2,0.5-1.4,1.1-2.1
		C1469.6,1961,1460,1965.3,1450.5,1969.6z M1751.4,1542c-5.5-0.1-8.9,3.3-13,7.4c6.7,1,9.5-3.8,13.5-6.2c3.5-1,7.2-1.7,9-7.1
		C1756.3,1537.4,1753.4,1539,1751.4,1542z M1765.2,1534.3c8.3-2.7,14.1-9.8,22.5-12.2c-10.3,0.1-15.9,3-23.4,11.5
		c-0.8,0.3-1.8,0.8-0.9,1.7C1764.2,1536.1,1764.9,1535.2,1765.2,1534.3z M1593.8,1535.3c4.1,2,7-1,10.2-2.4
		c24.3-10.9,46.3-25.8,69.8-38.2c26.1-13.7,51.7-28.5,77.4-42.9c14.5-8.1,29.4-15.4,43-24.8c14.9-10.3,28.6-22.4,42.4-34.1
		c3.9-3.3,9.8-4.7,11-10.4c-1.3-2.4-3.3-2.6-5.3-2.5c-11.8,0.7-23.3-1.9-35.4-0.6c-19.3,2.1-38.5,4.3-57.6,7.8
		c-4.7,0.9-8.8,4.8-12.8,3.8c-4.8-1.3-8.2,0.4-12.2,1.6c-3.7,1.1-7.5,2.9-11.2,3.1c-24.1,1.2-44.6,13-66.2,21.7
		c-2.6,1-6.1,4.4-3.6,7c5.6,6.2,2.3,11.7,0.1,17.5c-3.3,8.9-5,19.1-10.4,26.5c-15.6,21.1-27.9,44-39.4,67.4c0.5-0.4,0.7,0,0.4,0.1
		C1592.8,1535.9,1594.6,1536.3,1593.8,1535.3z M1388.2,1883.6c13.6-5,27.1-10.6,41-15c29-9.2,58.2-17.7,87.2-26.9
		c31.8-10.1,63.4-20.6,95.2-30.8c38.6-12.3,76.2-27.2,112.2-45.5c10.9-5.5,21.4-11.9,32.4-17.2c8.1-4,15.6-9.9,19.2-19.2
		c1-2.7,2.2-5.3,4.9-7.3c2.6-1.9,5-5.3,3.5-8.6c-2.3-5.1-4.7-10.5-10.1-13.1c-6.7-3.1-12.2-7.9-18-12.2c-3.3-2.4-6.6-3.9-10.6-4.9
		c-9.8-2.6-19.5-5.8-29.1-9.3c-7.3-2.7-13.9-8-22.4-4.3c-0.7,0.3-2.2,0.1-2.8-0.4c-7.3-6.6-17-5.5-25.4-6.4
		c-14.4-1.5-28.5-5.3-42.9-6.6c-4.1-0.4-8.1-2-12.2-0.3c-6.5-5.6-14.8-3.6-22.3-5.1c-10.7-2.2-21.7-1.3-32.5-3.3
		c-6.7-1.3-9,0-11.2,6.7c-2,6.1-5.1,11.5-8.2,17c-3.2,5.8-6.9,11.5-9,17.7c-5.2,16.1-11.6,31.6-20.6,46.1
		c-4.8,7.6-9.4,15.2-18.5,18.5c-4.5,1.6-7.5,5.4-10.4,9c-1,1.2-1.3,3.5-3,3.8c-8,1.2-8,8.7-10.9,13.8c-1.6,2.8-2.2,6.2-3.2,9.4
		c-1.8,5.6-4.1,10.6-11.4,9.6c-2.2-0.3-3.5,1.7-3.1,3c1.8,5.3-0.8,7.5-4.8,10.3c-4.6,3.3-4.6,11.1-11.7,12.4c2,5.4-3.4,8.4-4.4,13
		c-1.4,6.4-4.6,12.4-6.7,18.7c-2.2,6.7-8,9-13.6,10.5c-6.1,1.6-6.5,0.8-8,3.4c-2.5,4.1-6.2,6.9-9.5,10.1c-2.6,1.8-6.6,2.2-7.8,7.1
		C1383.2,1887,1385.7,1885.4,1388.2,1883.6z M2590.5,1511.6c-4.3,0.7-5.8,3.2-7.4,5.6c-11.8,17.4-26.4,32.7-37.6,50.7
		c-5.8,9.3-15.1,16.4-18.9,27.3c-0.4,1.2-1.6,2.1-2.6,2.9c-15.1,11.5-21.5,29.5-33.9,44.7c30.7-7.5,60.6-12.4,89-23
		c7.8-2.9,8.3-2.7,7.8-10.8c-1.3-22.2,4-44.1,1.7-66.3c-0.1-1.4,0.3-2.5,0.7-3.8C2592.2,1530.2,2590.1,1521.2,2590.5,1511.6z
		 M1409.3,1849.5c2.4-0.8,3.2-2.8,3.2-5.2c0-1-0.6-2-1.7-1.8c-2.7,0.6-3.1,3-3.5,5.2C1407.1,1848.7,1408,1849.4,1409.3,1849.5z
		 M2632.3,1717.2c-2.1,3.7-2.5,7.9,0,12C2632.3,1725.2,2632.3,1721.2,2632.3,1717.2z M1596,1938.1c-0.3-0.5-0.5-1.4-0.9-1.5
		c-1-0.4-1.9,0.2-2,1.3c-0.1,0.5,0.4,1.4,0.8,1.5C1594.9,1939.7,1595.7,1939.2,1596,1938.1z M1588.3,1926.5c-1.1,0.2-1.6,1-1.3,2
		c0.1,0.4,1,0.9,1.5,0.8c1.1-0.1,1.6-0.9,1.3-1.9C1589.7,1927,1588.8,1926.8,1588.3,1926.5z M1594.3,1924.6c-1.1,0.3-1.6,1-1.3,2
		c0.1,0.4,1,0.9,1.5,0.8c1.1-0.1,1.7-0.9,1.3-2C1595.7,1925,1594.8,1924.8,1594.3,1924.6z M2334,1851.5c0.5-0.2,1.3-0.3,1.6-0.7
		c0.5-0.9,0.1-1.8-0.8-2.1c-0.4-0.1-1.3,0.2-1.5,0.6C2332.7,1850.1,2333,1851,2334,1851.5z M2354.4,1806.5c-1,0.4-1.4,1.2-0.9,2.1
		c0.2,0.4,1.1,0.8,1.6,0.7c1-0.3,1.4-1.2,0.9-2.1C2355.8,1806.8,2354.9,1806.7,2354.4,1806.5z M2238.3,1768.3
		c-0.2-0.6-0.3-1.4-0.7-1.7c-0.9-0.5-1.9-0.1-2.2,0.9c-0.1,0.5,0.2,1.4,0.7,1.6C2237,1769.7,2237.8,1769.3,2238.3,1768.3z
		 M2362.1,1797.3c0.6-0.7,1.2-1.4,1.8-2.1c-0.4-0.3-0.9-0.8-1.3-0.8c-1.1,0-1.8,0.7-1.7,1.8
		C2360.8,1796.5,2361.5,1796.8,2362.1,1797.3z"/>
	<path fill="#020202" d="M582.8,1919.1c-6.2,7.8-7.9,18.3-13.9,26.6c-5.1-1.7-7.1-7-11.7-9.3c-2.4,2.8-2.7,6.2-3.5,9.6
		c-1.4,6.6-3.6,8.4-10.4,7.9c-9.5-0.7-18.9-2.1-28.4-3.2c-8.6-1-14.4-5.6-18.2-13.5c-2.6-5.4-3-5.2-9.7-3.8
		c0.7-11.9,0.6-23.6,1.1-35.3c0.8-19.3,6.7-37.5,8.8-56.5c1.5-13.9,7-27.2,11-40.7c9.9-33.2,20.9-65.9,32.4-98.5
		c8.7-24.7,16.6-49.8,26.4-74.1c10.2-25.4,20.6-50.8,30.3-76.4c2.6-6.8,7-13.1,7.5-20.8c-3.7-0.6-5.1,2.2-6.8,4
		c-11.6,12.2-23.3,24.2-33.6,37.5c-12.6,16.1-25.3,32.2-37.3,48.9c-9.2,12.9-18.7,25.6-26.9,39.2c-5.9,9.8-12.7,19.4-21.2,27.4
		c-4.3,4-7.8,8.4-10.1,14.3c-2.9,7.3-9.2,13-14.8,18.4c-23.7,22.5-42.9,48.7-62,74.9c-3.4,4.6-7.2,8.6-12,11.7
		c-8.6,5.7-17.1,11.4-25.5,17.3c-2.1,1.5-4.3,1.4-6.6,1.6c-12.9,1.4-25.7,3.3-38,7.6c-8.8,3-17.4,2.6-26.3,0.4
		c-9.8-2.4-16.3-8.7-18.4-17.7c-2.3-10-8.7-18.2-10.2-28.4c-0.3-1.9-0.8-3.7-0.8-5.7c0.2-17.7,0.2-35.3,0.2-53
		c0-9.8,2.5-19.4,3.1-29c0.8-12.1,5-23.6,4.4-36c-0.3-5.7,1.4-12.1,2.4-18.2c2.5-16.3,3.8-32.6,5.7-49c0.6-5.5,2.6-10.9,3.8-16.3
		c3.6-16.8,0.9-33.7,0.3-51.2c-2.8,3.7-5.8,7.4-8.5,11.2c-12.4,17.2-22.7,35.8-33,54.3c-13.1,23.4-25,47.4-37.3,71.3
		c-13.8,26.7-26.7,53.9-36.1,82.6c-3.1,9.5-8.4,17.9-13.1,26.7c-4.2,7.8-5.7,16-6,24.8c-0.5,11.8-2.8,23.3-5.9,34.9
		c-3.3,12.4-10.2,23.5-11.7,36.5c-0.6,5.4-4.4,10.9-8.4,15.6c-7.3,8.7-12,18.5-14.2,30c-1.9,10.3-4.5,20.9-13.4,28.1
		c-3.1,2.5-6.2,5.1-11,3.9c-0.2-3.8-0.4-7.4-0.7-11c-3.6-0.5-5.1,1-5.8,4.1c-0.8,3.9-3.5,7.1-7.4,7.1c-14.7-0.1-28.8,5.8-43.7,4.2
		c-2-0.2-3.8-0.4-5.8-1.1c-11.2-3.6-11.8-4.4-12-16c-0.2-13.5-0.2-27,4.1-40.1c0.7-2.1,0.4-4.6,0.3-6.9c-0.5-13.9,2.7-27,8.9-39.4
		c1.1-2.3,0.9-4.6,0.8-6.8c-0.4-10.1,1-19.5,5.3-29c3.5-7.7,5-16.3,6.5-24.9c2.3-13.3,6.6-26.2,11.4-38.9
		c15.7-41.4,28.1-83.8,43.3-125.4c10.9-30,21.6-60,32.8-89.8c11.6-30.9,23.9-61.5,37.5-91.6c13.2-29.3,26.7-58.6,43.1-86.4
		c4.7-7.9,9.7-15.9,15.6-22.9c3.7-4.4,10.2-6.3,14.1-10.6c5.7-6.2,12.8-9.2,20.4-11.7c10.3-3.4,14.4-1.8,21,7.1
		c3.4,4.5,8.8,4.7,13.4,4.8c20.3,0.2,40.4,3.2,60.8,2.1c9.2-0.5,17.3,2.4,25,7.7c6.2,4.3,14,5.9,21.3,7.4
		c8.2,1.8,14.5,5.8,20.4,11.4c9,8.6,16.3,18.3,23.2,28.5c2.6,3.9,3.7,8,4.1,11.9c1.3,12,0.5,24.1-3.2,35.8
		c-2.7,8.8-2.9,18.4-6.3,26.7c-4.7,11.8-5.6,24.3-9,36.2c-1.2,4.1-3,8-4.4,12c-5.6,17-7.7,34.5-10.5,52
		c-4.7,28.5-11.1,56.7-18.5,84.6c-1.3,5-0.4,9.5-0.4,14.5c7.5-6.9,13.6-14.5,18.9-22.7c10.5-16.1,21.2-32,33-47.2
		c6.8-8.8,10.6-19.7,17.9-28.3c4.7-5.6,9.2-11.3,14.3-16.5c4.6-4.8,8.7-9.9,11.8-15.9c4.9-9.5,11.9-17.3,19.1-25
		c7.7-8.2,15.7-16.2,22.2-25.4c0.6-0.8,1.2-1.7,1.9-2.3c13.8-11.7,23.6-26.9,35.8-40.1c5.2-5.7,11.4-10.9,14.1-18.8
		c0.9-2.6,3.9-4.4,6.1-6.5c6.3-6.2,11.5-13.4,16.5-20.7c4.3-6.1,10.2-11.1,15.5-16.3c8.1-8,17.1-15.1,23.4-24.7
		c3.4-5.1,8.2-8.5,12.8-12.1c9.3-7.4,18.4-15.2,26.8-23.6c4.3-4.3,9.7-5.7,15.1-7c10.2-2.5,20.6-4,28.3-12.6
		c2.4-2.7,7.1-4.4,10.8-4.5c12.5-0.5,25.2-1.9,37.6,1.7c1.2,0.4,2.7,0.8,3.5,1.7c9.2,9.9,21.6,15.1,32.4,22.8
		c11.2,8,20.8,17.4,28.4,28.8c7,10.4,6.5,22.4,4.3,33.7c-3.3,16.4-8.3,32.6-18.2,46.7c-0.5,0.7-0.4,1.9-0.6,3.1
		c6.6,1.4,12.3-1.7,18.3-2.8c16.6-2.8,32.4-8.5,48.7-12.6c16.6-4.2,33.5-6.9,50.4-9c6.8-0.9,13.6-2.4,20.3-4c11.9-2.8,24-4,36-5.6
		c26-3.6,52.2-3.1,78.4-4.1c12.2-0.5,24.5-1.9,36.7-1.3c31.4,1.5,62.5,5,91.9,17c14.9,6.1,26.1,16.7,35.9,29.1
		c2.7,3.4,3.5,6.9,3.4,11c-0.2,7,4.2,14.2-1.5,20.9c-0.4,0.5,0.8,2.3,1.2,3.6c2.9,8.7,2,17.7,2.1,26.6c0.1,4.8-1,9.5-4.2,12.9
		c-5.3,5.6-9.3,12-13.8,18.2c-1.6,2.2-2.7,4.3-6.3,3.1c-4-1.3-7.6,1.8-11.4,2.5c-1.4,0.3-2.1,1.2-2.5,2.7
		c-3.1,11-12.2,17.4-20.5,23.4c-16.5,12-35.1,20.1-54.9,25.6c-8.3,2.3-15.4,8.7-23.7,11.7c-11.2,4.1-19.6,13.3-31.3,15.9
		c-6.7,1.5-12.6,4.1-18,8.1c-1.6,1.1-2.8,1.9-3.3,4.3c-1.1,6.1-4.4,11.7-10.5,13.4c-3.9,1.1-4.2,3-3.6,5.5
		c2.6,9.9,1.2,20.2,4.3,30.3c3,10,3.6,20.6,5.3,31c1.7,11,3.5,22,5,33.1c1.5,10.8,2.8,21.6,4.2,32.4c1.7,12.7,4,25.4,5,38.2
		c0.6,7.9,1.5,15.6,4.1,23.1c1.1,3.2-0.5,6.3-2.8,8c-6.6,4.9-8.1,11.6-8.1,19.1c0,4.9-0.9,8.5-6.3,11c-4.6,2.1-4.8,8-5,13
		c-0.3,9.4-3.3,12.3-12.8,10.9c-8.1-1.2-16-3.5-24.1-5c-4.2-0.8-6.9-3.1-9.3-6.7c-4.8-7.2-7.9-15.4-13.6-21.9
		c-2.9-3.4-1.3-7.6-2.8-11.4c-6-14.8-7.9-30.5-9.9-46.3c-3.5-26.8-9.9-53.1-16-79.4c-1.7-7.4-3.7-14.8-3.2-22.4
		c0.2-3.8-1-7.2-2.2-10.6c-3.2-9.4-6.6-18.6-9.8-27.9c-1.3-3.9-3.3-5.2-7.3-3.3c-7.7,3.7-16.3,1.5-24.4,3.3
		c-3.2,0.7-5.1,1.4-3.5,4.8c1.7,3.4-0.4,4.8-2.7,6.3c-8.1,5-16.1,10-21.6,18.2c-1.6,2.5-3.7,4.7-4.7,7.5
		c-5.5,14.6-13.6,28-19.4,42.5c-5.6,14.1-13.9,27-18.8,41.4c-1.5,4.4-3.9,8.4-5.3,12.8c-0.9,2.7-1.8,4.1-4.7,5.3
		c-5.5,2.2-4.4,8.6-5,13c-0.9,6.1-2.1,11.6-5.5,16.7c-0.5,0.8-0.6,2.5-1.2,2.7c-11.2,3.6-10.7,13.6-12.6,22.4c-0.3,1.4-0.4,3-2,3
		c-8.5-0.1-9.5,6.9-11.5,12.4c-2.3,6.4-9.4,9.2-10.9,18.3c-2.6-5.6-5.4-6-9.4-5.4c-5.9,0.8-12.4-1.2-17.1,4.4
		c-1.3,1.5-3.7,2.1-5.6,1.3c-8.8-3.2-17.8-1.7-26.7-1.5c-7.6,0.1-11.1-3.2-12.4-12.9c-2.1-16,4-30.2,9-44.8
		c11.3-32.7,21.3-65.8,31.5-98.8c3.8-12.3,9.1-24.1,13.8-36c1.6-4.1,4.9-7.4,0.8-12.5c-2.3-2.8,1.3-9.5,5.4-11.1
		c7.1-2.7,10.4-8,13.3-14.7c13.4-31.2,29.7-60.9,45.8-90.7c6.9-12.8,13.6-25.8,19.1-39.4c3.4-8.5,8.2-16.6,12.6-25.3
		c-5.1-2.6-8.6-0.1-12.1,2.1c-4.4,2.9-8.6,6.2-13.6,8.3c-7.9,3.4-13.3,3-18.6-3.3c-4.8-5.6-11.7-8.2-16.5-13.8
		c-2.5-2.9-7-3.5-11-3.9c-4.2-0.5-6.7,1.1-8.4,5.2c-4.6,11.2-10.2,21.8-17.6,31.7c-4.4,5.9-7.5,13.1-9.7,20.6
		c-2.1,7.3-5.2,14.3-8.5,21.1c-6.5,13.5-13,26.9-21.2,39.5c-1.1,1.7-2.1,3.2-2.7,5.2c-3.6,12.5-9.3,24.1-15.3,35.6
		c-7.7,14.6-13.2,30-18.3,45.6c-3.5,10.7-7.9,21.1-12.7,31.3c-3.2,6.7-4.5,13.7-5.9,20.8c-0.7,3.5-0.9,8.1-3.9,10
		c-6.7,4.3-7.2,12.3-11.9,17.8c-2.6,3.1-4.7,8-3.1,13.8c2,7.1-2.6,14.1-4.8,20.8c-1.8,5.5-3.2,10.5-2.2,16.3
		c1.5,9.4-2.6,18.2-4,27.3c-0.1,0.6-0.4,1.4-0.9,1.7c-8.5,6-7.1,15.3-8.3,23.8c-1.8,12.7-3.9,25.3-5.6,38c-0.6,4.6,0,9.3-0.2,14
		c-0.1,3.7-0.5,7.4-5.4,3.2c-0.9-0.8-2-0.8-2.5,0c-4.4,7.5-5-0.7-6.9-1.9c-0.9-0.6-0.5-3.1-0.7-4.7c-0.1-1.7-0.2-3.4-2.5-3.6
		c-1.8-0.2-3.3,0.6-4.2,2.1c-1,1.7-1.8,3.6-2.7,5.3c-0.7,1.3-1.9,1.9-3.3,1.7c-2.2-0.3-2.1-2-2.4-3.7
		C584,1923.5,586.3,1921.5,582.8,1919.1z M927.5,1589.9c12.4-3.2,21.6-9.2,31.7-13.4c32.7-13.6,65.8-26.1,97.9-41
		c7.5-3.5,15.4-6,22.9-9.5c19-8.8,36.5-20.3,53.8-31.9c7.1-4.8,13.8-10.2,20.4-15.8c6.5-5.6,5.3-11.4-2.7-14.1
		c-0.9-0.3-2-0.3-2.9-0.5c-9.7-2-19.4-3.4-29.3-4c-9.7-0.6-19.1,2.6-28.7,2c-9.7-0.6-19,1.9-28.6,2.4c-13.1,0.7-26.1,3.2-39,5.5
		c-13.6,2.4-26.9,6.2-40.6,8.1c-4.2,0.6-6.6,2.8-5.7,8.4c1.4,8.6-0.2,16.7-5.5,24.5c-4.4,6.5-9.7,13.3-11.9,20.6
		c-3.9,12.9-12.2,22.4-19.9,32.6C933.8,1571.3,930.8,1579.9,927.5,1589.9z M604,1918.9c1.9,0.2,3.1-0.9,3.2-2.1
		c0.3-8.3,0.3-16.6,0.3-25c0-2-1.3-3-3.2-2.9c-2.5,0.1-3.3,1.7-3.3,4C601.1,1901.8,600,1910.7,604,1918.9z M624,1806.4
		c1.4-0.5,2.2-1.6,1.8-2.9c-0.4-1.2-1.2-3.1-1.8-3.1c-2.2,0-1.7,2.1-1.7,3.5C622.2,1805.1,622.4,1806.3,624,1806.4z M604.8,1529.1
		c0.3,0.3,0.5,0.5,0.7,0.7c0.2-0.4,0.5-0.9,0.6-1.3c0-0.2-0.4-0.4-0.6-0.7C605.2,1528.3,605,1528.7,604.8,1529.1z"/>
	<path fill="#08090A" d="M1234.4,638.4c-1.3-80.1,8.4-156.7,29-233.1c-199.7-25.5-398.5-50.8-598.9-76.4c5.2-1.8,9.1-1.8,13-1.8
		c171.7,0.1,343.3,0.1,515,0.2c6.3,0,22.2-0.5,31.3-0.5c-23.6-1.4-28.1-14-22-26c-1.1-0.6-1.6-1.1-2.2-1.1
		c-21.1,1.3-18.3,1.2-32.3-12.5c-14.8-14.5-28.8-29.6-42.7-44.9c-8-8.8-10.7-17.3-4.9-27.9c0.7-1.4,1.4-3,0.6-4.8
		c-2.9-1.4-5.8,0.1-8.7,0.2c-6.7,0.1-11.4-2.4-14.2-8.8c-6.9-16.3-12.3-33.1-14.2-50.8c-0.6-6-0.5-12,0.7-17.9
		c3-15.4,12.1-24,27.7-25.4c65.4-5.9,130.8-11.6,196.2-17.4c12.6-1.1,25.2-2.5,37.8-3.3c5.6-0.3,10.1-2.3,14.6-5.5
		c35.7-25.2,73.3-47.3,113.8-64.2c15.7-6.6,32.3-10.4,48.4-15.8c1.9-0.6,3.9-0.8,5.9-0.1c33.4,10.5,67.7,17.3,101.9,24.5
		c25.6,5.4,49.9,13.7,73.6,24.5c20.6,9.4,41.7,17.6,62.5,26.6c24,10.4,49.4,15.8,74.8,21.2c31.3,6.7,62.8,12.2,93.8,20
		c6.8,1.7,13.3,4.2,19.3,7.9c39.5,24.3,77.6,50.5,114.5,78.6c9.4,7.1,15.8,16,20.4,26.6c5.1,11.9,10.3,23.8,15.7,35.6
		c3.2,7.1,8.1,12.7,14.5,17.5c30.2,22.5,60.1,45.4,87.6,71.2c13.4,12.6,25.6,26.2,37.3,40.3c12.1,14.6,26.5,27.2,41.4,38.9
		c3.4,2.7,6.8,5.4,10.4,7.8c36.4,23.7,61,58.1,85.3,92.9c4.8,6.9,5.4,12.9,0.7,20.9c-14.4,24.8-27.7,50.1-41.4,75.3
		c-3.1,5.6-6.9,10.5-11.5,14.9c-17.1,16.1-35.9,29.7-57.2,39.8c-4.7,2.2-8.3,5.3-11.6,9.2c-13.3,15.4-26.8,30.6-40.3,45.8
		c-11.8,13.4-25.6,24.2-41.1,33c-16.8,9.5-33.6,19.2-51.3,27c-7.7,3.4-9.3,19.2-9.3,20.6c3.3,2,5.6,0.2,8-0.6
		c5.4-1.8,10.7-3.7,16.1-5.5c6.5-2.1,6.4-2,7.5,4.6c1.9,11.2-1.6,21-7.1,30.5c-10.3,17.7-23.5,33.1-37.9,47.6
		c-5.2,5.3-7.8,10.1-7.1,18.2c1.6,17.5-7.3,31.2-24.1,35.7c-16.5,4.4-28.9,13.9-41.1,25c-20.2,18.4-41,36.1-64.9,49.8
		c-8.3,4.7-16.9,7.3-26.7,6.4c-47.4-4-93.7-12.6-138-30.5c-18.8-7.6-36.3-17.7-55.6-29.6c18-4.8,33.8-9.1,51.9-13.9
		c-16.2-9.4-32.3-15.4-48.7-23.3c13.4-9.2,27.9-14.1,40.2-22.5c-1-3.8-3.8-2.9-5.9-2.9c-24.8-0.3-44.4,10.3-59.9,28.9
		c-8.4,10-15,21.2-19.4,33.6c-0.7,2.1-0.7,4.7-4,6.2c-6.2-4.7-12.7-9.6-19.2-14.5c-2.9,3.4-1.8,6.8-1.8,10
		c0,46.5,11.7,90.3,31.4,132.1c22.4,47.6,53.1,89.2,91.3,125.3c1.8,1.7,4.7,2.8,4.7,6.4c-131.3-37.3-248.4-100.4-350.5-192.2
		c-5,5.1-9.6,9.8-14.3,14.4c-5.4,5.4-5.4,5.4-10.8,0.5c-16.1-14.6-31.1-30.1-45.1-46.8c-69.6-82.9-112.2-178.1-129.4-284.8
		c-5.6-34.6-7.9-69.5-7.3-104.6c0-1.3,0-2.5,0-6C1245,625.4,1240.3,631.2,1234.4,638.4z M2230.7,701.8c0.3-0.3,0.5-0.7,0.8-1
		c-0.3,0.3-0.7,0.5-1,0.8c-0.7,0.6-1.5,1.2-2.2,1.8c-4.8,0.6-81,62.1-84.8,68.8c6.1-2.1,55.8-33.8,70.9-51.8
		c2.5-3,12.7-13.5,14.5-16.4C2229.5,703.2,2230.1,702.5,2230.7,701.8z M1963,362c3.8-6.2,12.7-24.2,12.9-31.9
		c-18.9,6-36.7,13.1-57.4,13.2c9.6,12.5,16.3,25.1,21.8,38.3c1.4,3.4,3.5,4.3,7,3.9c11.5-1.6,21.9-5.7,30.2-14.1
		c3.7-3.8,7.3-7.8,10.9-11.6c4,5.6,8,11.1,11.8,16.8c1.4,2,4,3.7,2.5,6.8l-0.2,0.4c-1.3-0.3-2.7-0.4-3.7-1.1c-5.8-4-10-2.6-15.5,1.9
		c-14.9,12.3-32.3,17.5-51.8,14c-3.6-0.6-7.2-0.7-10.8-1c-0.8-1-1.6-1.1-2.5-0.2c-5.2,0-10.3-2-15.6-0.9c-7.1-1.8-14.4-2-21.7-2.4
		c-33.1-1.9-66.1-3.8-99.2-5.5c-8-0.4-16.1-0.1-24.4-0.1c1,3.7,4.3,4.6,6,6.9c0.4,0.6,1.8,0.5,2.8,0.7c2.8,3.9,6.4,7,10.5,9.5
		c0.6,0.8,1.2,1.6,1.9,2.3c21.6,18.3,43.3,36.5,64.9,54.8c6.8,5.7,13.4,11.6,20.1,17.4c-0.2,0.5-0.5,0.9-0.7,1.4
		c-13.4-1.3-26.8-2.6-40.2-3.9c-2-2.4-4.9-1.7-7.5-2c-29.7-3.9-59.4-7.7-89.1-11.5c-27.1-3.5-54.1-7-81.2-10.4
		c-29-3.6-58.1-7-87.2-10.7c-40.6-5.2-81.2-10.5-121.7-15.8c-29-3.8-58.1-7.5-87.1-11.2c-21.4-2.8-42.9-5.4-64.3-8.3
		c-4.9-0.7-7.4,0.8-8.4,5.8c-3.1,15.3-6.9,30.5-9.9,45.9c-6.8,34.3-10.6,69-13.4,103.9c-0.6,7.3-1.7,14.8,0.6,22.8
		c6.9-5.3,9.2-13.8,16.6-17.6c0,5.7,0.4,10.7-0.1,15.6c-2.8,32.6-2.5,65.2-0.1,97.8c2.6,35,8.7,69.3,17.9,103.1
		c18.5,68.6,48.7,131.6,90.9,188.8c16.2,22,34.1,42.6,53.9,61.6c3.6,3.5,6.3,4.1,9.8,0.2c3.5-4,7.5-7.6,11.2-11.4
		c2.6-2.7,4.8-2.7,7.7-0.2c4.5,3.9,7.9,9,13.4,11.8c2.8,3.4,5.7,6.6,9.9,8.2l0-0.1c7.8,9.6,18.1,16.2,27.7,23.7
		c18.2,14.3,36.3,28.6,56.4,40.2c1.2,1.1,2.3,2.3,3.7,3.2c32.8,21,66.7,40.1,101.8,56.9c2.1,1,4.1,2.4,6.6,2
		c21.2,10.8,42.9,20.3,65.8,27.8c-0.2-3.2-1.7-4.6-3-6.1c-16.5-21-30.6-43.7-42.6-67.5c-25.1-49.5-39.7-101.6-38.1-157.6
		c0.4-12.6,1.7-25.2,2.6-37.9c2.3-0.7,3.6,0.8,5.2,2.1c8,6.4,16.1,12.6,24.2,18.9c28.2-41.3,39-45.4,68.5-57
		c-14.7-14.2-80.7-48.5-92.7-47.9c8,17.4,22.3,30.8,31,48.6c-5.3,0-7.7-2.7-10.3-4.5c-53.1-36.9-109.9-66.5-170.2-89.7
		c-13.3-5.1-26.6-10.5-40.8-12.6c-14.3-3.8-28.7-7.6-43-11.4c14.8-0.9,29.3,1,43.7,3.5c59.4,10.4,113.9,34,166.4,62.4
		c0.9-1.1,1.5-1.6,1.6-2.1c3.5-13.2,9-17,22.2-15c7.3,1.1,14.1,3.8,20.9,6.7c17.8,7.6,34.6,17.2,51.2,26.9c3,1.8,5.8,4.2,10.3,4.7
		c-0.5-4.4-3.1-6.5-5.1-8.9c-8.1-9.8-16.5-19.2-25.3-28.3c-11.7-12.3-24.3-23.5-36.8-34.9c0.1-1.5,0.1-3,0.2-4.4
		c11.3,5.4,21.9,11.9,32.1,19.1c37.6,26.7,69.1,58.9,91.3,99.8c3,5.5,6.5,10.8,6.8,17.4c-8.3,2.3-15.6,6.5-22.4,11.1
		c0.4,3.3,2.7,3.7,4.4,4.4c9.7,4.1,18.6,9.6,27.6,14.9c4.9,2.9,8.4,8,7.5,11.9c-1.3,5.2-5.1,7.1-10.1,8.1
		c-8.3,1.6-16.5,3.8-24.7,5.8c0.6,3.9,3.3,4.1,5.3,4.9c6.5,2.6,13,5.1,19.5,7.4c38.8,13.6,78.8,20.9,119.7,23.8
		c4.8,0.3,9.4-0.5,13.4-2.8c7.7-4.5,15.7-8.7,22.1-15.2c2.8-1.8,5.6-3.5,8.3-5.5c17.6-13.2,33.8-28.1,50-42.9
		c3.5-3.2,7.2-5.7,11.8-7.1c6.7-2,13.3-4.3,19.9-6.6c5.5-1.9,9-5.4,10-11.3c1-5.9,0.6-6.6-5.3-7.8c-2.3-0.5-4.9-0.5-6.8-1.6
		c-6.4-4-11.6-3-16.3,2.7c-5.4,6.5-12.6,6.7-20.1,5.2c-11.9-2.4-22.6-7.6-33.3-13.2c-6.3-3.3-8.9-7.5-7.3-14.3
		c1.7-3.6,3.6-7.1,5-10.9c1.7-4.6,7.6-8.6,6.1-13c-1.6-4.8-8.5-5.7-13-8.3c-11.6-6.6-23.4-12.7-33.7-21.3c-7.3-6.1-7.9-8.5-5.3-17.1
		c1.1-3.5,1.9-7.1,3.2-10.5c1.3-3.5,0.4-5.5-2.9-7.2c-6.4-3.5-12.6-7.4-19-11c-3.3-1.9-4.7-3.9-3.1-8c2-5.2,6.8-11,4.5-15.7
		c-2.2-4.4-8.7-6.7-13.3-9.8c-0.4-0.3-1.2,0.1-2.3,0.2c0,9.9,1,19.7,1.7,29.6c1.1,15.3,6.6,28.8,14.9,41.7
		c8.3,12.7,49.1,42.9,50.9,61.3c-11.7-1.1-34.1-27.9-40.6-28.7c4.8,9.8,10,17.9,15.4,25.7c5.5,8,11.4,15.8,18.3,25.2
		c-5.1-2-8.5-3.3-11.8-4.5c-5.8-6-13.4-9.6-19.4-15.6c-22.9-23-37.6-50.5-45.2-81.8c-9.8-40-10.2-80.3-1.8-120.6
		c5.1-24.5,16.3-45.2,36-61.5c15.9-13.2,32.5-25.4,49.2-37.4c2.6-1.9,6-3.2,7-6.8c12.7,0.1,25.5,0.2,38.2,0.3
		c-1.3,2.4-0.3,4.5,0.8,6.6c4,8.1,7.9,16.1,11.9,24.2c4.9,9.9,12.5,17,22.4,21.9c37.6,18.5,76.8,32.1,118.2,38.8
		c20.6,3.3,41.1,3.7,61.3-2.6c29.3-9.1,53.7-26.2,75.6-47.2c1.7-1.6,3-3.6,4.1-5.6c4.6-8.1,9-16.3,13.5-24.5
		c2.5-2.3,1.4-5.3,1.6-8.1c1.3-0.9,3.6-1,3.6-2.9c0.1-2.5-2.1-1.9-3.6-1.8c-4.6,0.2-9.2,0.5-13.9,0.7c-2.4,0.1-4.9,0.2-6-2.4
		c-5.4-12.8-10.5-25.7-12.9-39.5c-0.5-3,1.5-4.3,4-4.4c10.1-0.5,20.4-2.8,27,8.8c3.2,5.7,9.3,9.3,15.7,11.6c3.3,1.2,6.1,1.1,5.6-3.7
		c2.8-1.5,2.4-4.2,2.6-6.7c6.4-4.2,6.9-5,2.9-10.4c-8.6-11.9-17.6-23.5-26.3-35.3c-11.8-15.9-25.4-29.9-41.7-41.3
		c-9-6.3-17.7-13.1-26.3-19.9c-14.6-11.4-30.8-12.9-48-8.2c-9.3,2.6-18.4,5.8-27.6,8.8c-2,0.7-4.8,0.3-5.4,4.2c2.1,0,4,0.2,5.9,0
		c8.2-0.9,15.7,1.1,23,5c19.2,10.2,39.4,18.9,57.7,35.1c-2.6-11.7-7-20.5-10.6-29.4c1.4,0,2.8,0,4.2,0c8.1,14.5,13.7,29.9,18.2,45.9
		c1.9,6.9,1.8,14.3,5.7,20.7c0.1,2.6,0.2,5.2,0.3,7.7c-0.5,5.5,1.7,10.4,3.8,15.3c5.3,12.5,12.2,24.4,16.7,37.3
		c-1.7,4.2,1.2,9.2-2.5,13c-5-4.2-7.4-10.2-10.2-15.8c-12.6-25.4-21.8-52.2-30.8-79c-2.8-8.2-7.4-13.8-14.7-17.9
		c-15.4-8.7-31.1-16.6-47.2-23.8c-3.1-1.4-6.2-2.1-9.6-2.1c-11.6,0.3-23.3,0.1-34.9,0.9c-13.3,0.9-26.5,2.7-39.2,7.1
		c-5.6,1.9-9.9,4.9-13.4,9.8c-4.2,6-19.9,25.9-24.5,31.5c-0.8-5.4,0,0-0.8-5.4c2.8-4.9,13.1-18.9,15.3-24
		c6.1-13.7,17.3-20.5,31-24.2c5.1-1.4,10.3-2.8,15.5-3.7c4.3-0.8,8.3-2.2,12.3-3.8c15.1-6.1,30.1-12.3,45.1-18.5
		c1.9-0.8,4.9-0.3,5.1-3.6c-11.1-5.8-11.1-5.8-21.6-5.3c-17.9,0.9-85.1,14-85.8,12.9c13.5-7.7,55.5-17.2,71.2-22.2
		c-24.9-7.6-50.6-8.6-77.1-9.2c3.7-2.9,7.3-3.1,10.8-3.7c18.5-3,37.1-2.4,55.7-2.1c2.9,0.1,5.9,0.9,8.8,1.7
		c18,4.8,35.4,11.6,52.1,19.7c5.9,2.8,11.7,3.5,19.4,2.7c-4.8-5.5-8.1-11.2-15-11.9c-31.2-2.9-59-15-85.3-31.3
		c-4.6-2.9-9.5-4.7-14.8-5.4c-9.3-1.2-59.4,4.1-59.6,2.7c14.5-7.4,44.1-13.8,60.6-12.6c7.5,0,14.1,1.6,20.7,5.9
		c17.7,11.4,36.8,20,57.3,25.3c4.3,1.1,8.5,2.3,13.1,2.1c-0.2-2.9-1.8-3.8-2.9-4.9c-15.7-17.3-33.1-32.7-50.8-48
		c-24.5-21.3-52.4-38.4-76-62c-1.1,6.6-1.1,13.1-3.4,18.7c-2.2,5.5-6.8,10-12.5,13.4c3.6-9.7,4.3-19.6,3.3-29.6
		c-1-10.6-2.1-21.2-2.8-31.8c-1-14.9-7.5-26.4-19.4-35.4c-24.4-18.5-49.7-35.8-75-53.1c-22.3-15.2-44.6-30.5-72.4-34.2
		c0.1-2.7-0.2-5.4,0.4-7.9c0.9-3.9-1.1-4.4-4.1-5c-19.8-3.6-39.7-6.4-59.5-10c-9.7-1.8-19.5-3.7-29.3-4.9
		c-21.5-2.5-43.5-2.6-63.6-12c-25.6-9.6-50.4-20.9-75.4-31.9c-8.8-3.9-17.7-7.6-27.2-9.7c-35.8-7.9-71.5-15.8-107.1-24.7
		c-13.2-3.3-25.3-2.7-38,1.4c-38.4,12.4-73.3,31.6-107.4,52.7c-1.1,0.7-2.1,1.6-1.8,3.2c1.1,1,2.4,0.8,3.7,0.5
		c10.5-1.8,21.2-2.1,31.8-2.6c4.7-0.2,9.4-0.2,13.8,1.7c2.1,0.9,4.8,1.9,5.3,4.2c0.5,3-2.4,4.6-4.6,5.9c-5.9,3.5-12.7,4.1-19.2,4.8
		c-48.7,4.8-97.5,9.3-146.2,13.9c-54.4,5.1-108.8,10.2-163.1,15.3c-12.1,1.2-14.9,4.2-15.3,16.1c-0.5,14.6,3.6,28.3,8.4,41.9
		c2.4,6.8,3,9.2,11.4,7.4c2.9-0.6,6-0.4,9,0c9.2,1.4,13.9,8.1,11.8,17.3c-0.9,3.9-2.3,7.7-4.2,11.2c-2.8,5.2-1.9,8.9,2,13.3
		c14.2,15.9,29,31.2,44.1,46.4c3.2,3.2,6.4,4.2,10.7,3.6c4.3-0.6,8.6-1.2,12.9-1c11.2,0.5,16.6,8.4,13.8,19.2
		c-0.8,2.8-3,5.2-2.3,8.8c5.2,1.7,10.4-0.7,15.6-0.7c8.2,0.1,16,0.8,21.8,7.6c1.5,3.8-1.7,7.6-0.5,11.7c94.2,0,187.8,0,281.5,0
		c0.2,0,0.5-0.3,0.6-0.6c0.5-1.2-1.2-0.5,0.8-1.2c-10.5-4.7-20.4-9.2-30.4-13.7c-4.4-2.3-8.7-4.7-13.2-6.9
		c-39-18.9-95.5-45.6-134.6-64.4c1.5-1.6,563-8.7,561.6-15.4c9.2,1.6,55.6,39.4,59.8,47.1c3.7,6.8,5.1,14.6,8.7,22
		c4.5-21.6,0.5-51.2-1.9-64.3c1.2,0.1,22.2,39.6,9.2,74.8c-0.5,1.2-0.9,2.5-1.2,3.8c-0.2,0.9-0.3,2-0.1,2.9
		c2.5,14.2,6.3,17.9,21.2,20.2c4.6,0.7,9.2,1.2,13.8,1.9c2.2,0.3,4.8-0.5,8.4,2.1c-18.1,4.5-34.2,9.9-51.6,6.4
		c-2-1.1-1.6-4.3-4.5-5.1C1980.6,343.1,1966,363.2,1963,362z M2204.3,700.1c-21.9-1.4-41.1-4.8-60-10.1c-4-1.1-6.4-0.3-6.8,4.2
		c-0.2,2.3-0.9,4.6-1.1,6.9c-1.3,15.7-7.7,29.2-17,41.8C2112.9,751.7,2172.4,729.5,2204.3,700.1z M956.4,345.7
		c-0.1,0.7-0.1,1.4-0.2,2.1c282.4,35.9,564.9,71.9,847.3,107.8c-30.1-28.8-62.2-54.7-92.6-83c70.8,2.1,141.1,5.2,212.2,10.5
		c-3.2-14.1-8.1-26.2-15.8-37.3c-2-2.9-4.8-4.3-8.3-4.9c-7.6-1.3-14.9-3.6-22.1-6.4c-1.9-0.7-5-0.6-4.6-4.3c2-0.1,4-0.3,5.9-0.4
		c33.3-1.2,65.2-8.7,96-21.4c3.8-1.6,5.4-3.3,4.7-7.3c-1-5.2-1.6-10.5-2.8-15.7c-1.7-7.6-2.3-8-10-8.2c-37.3-1.1-74.6-2.2-111.9-3.2
		c-71.6-2-143.2-4-214.8-5.9c-59.3-1.6-118.6-3.1-177.9-4.6c-2-0.1-4.4-1-6.7,1.8c54.9,26.5,109.3,52.7,163.7,78.9
		c-0.1,0.5-0.3,1-0.4,1.6C1397.7,345.7,1177,345.7,956.4,345.7z M2039.1,814.8c2.1-2.6,4.1-5.2,6.2-7.7c19.3-22.9,37.8-46.5,56-70.4
		c10.2-13.4,16.6-27.7,18-44.5c0.7-8.6,1.3-8.7-7.4-11.7c-19.8-7-39.1-15.1-57.8-24.6c-12.3-6.3-21.7-15.3-28.1-27.5
		c-2.6-5-4.9-10.2-7.7-15.1c-2.4-4.3-3.4-9.4-7.5-13.6c-18.9,13.9-37.7,27.7-54.9,43.3c1.8,3.5,4.4,4.6,6.4,6.3
		c13,11,25.8,22.1,36.5,35.4c5.7,7.2,9.6,14.9,9.7,24.5c0.2,24,2.7,47.9,6.3,71.6c3.1,20.8,6.8,41.4,15.2,60.8
		c3.5,8,3.6,8.1,11.5,3.9c24.4-13.1,47.2-28.7,70-44.3c6.6-4.5,8.3-10.4,9.2-18.7C2093.7,795.2,2067,806,2039.1,814.8z
		 M2015.4,854.9c-4.7-12-8.4-21.8-11-32c-9.2-36.3-12.7-73.4-14.1-110.8c-0.2-6.4-2.1-11.6-6-16.4c-11.2-13.8-24.7-25.1-38.4-36.3
		c-3.7-3-5.7-1.6-8.1,1.4c-4.8,5.7-8.3,12.1-10.8,19c-5.6,15.8-7.9,32.3-9.9,48.9c-0.6,5,2,8.3,5.2,11.3
		c6.1,5.7,12.9,10.5,20.4,14.3c13.1,6.7,13.1,6.8,8.3,21c-2.7,8-2.6,7.8,4.4,12.4c5.7,3.8,14.2,5.1,16.7,11.8
		c2.6,6.9-0.8,14.4-3.1,21.4c-1.6,5.1-0.2,8.1,4.1,10.7C1986.1,839.6,1999.4,847.2,2015.4,854.9z M2100,831.3
		c-3.9,2.5-6.8,4.5-9.8,6.4c-18.4,11.9-36.7,24.4-57.4,31.8c-10.6,3.8-15.8,11.3-20.6,20.2c-1.5,2.8-1.8,4.8,1.7,6.3
		c5.2,2.2,10.3,4.6,15.7,6.2c4.9,1.4,8.8,1,12.7-2.7c6-5.7,12.7-10.7,18.8-16.4c12.5-11.9,25.2-23.8,34.2-38.8
		C2097.6,840.8,2100.4,837.3,2100,831.3z M2075.4,896.2c1.5,1.3,3.3,0.9,4.6,0c9.3-6.5,16.3-15.5,23.8-23.8
		c8.8-9.7,17.3-19.7,23.8-32.1c-9.9,1.8-10.8,1.8-12.7,5.7c-9,18.7-23.5,32.8-38,46.9C2075.9,893.9,2074.8,894.6,2075.4,896.2z
		 M1243.4,323.4c-7.9,0-13.8,1.2-19.5,3.4C1229.9,326.5,1236.5,329.7,1243.4,323.4z M1943.4,862.3c-0.2,0.2-0.4,0.4-0.7,0.6
		c0.2,0.2,0.4,0.4,0.6,0.6c0.2-0.3,0.4-0.6,0.6-1C1943.7,862.5,1943.5,862.4,1943.4,862.3z M1755.3,862.2c-0.3,0.3-0.7,0.5-0.6,0.8
		c0,0.2,0.4,0.5,0.7,0.7c0.2-0.2,0.6-0.5,0.6-0.7C1755.9,862.6,1755.5,862.4,1755.3,862.2z"/>
	<path fill="#020202" d="M3186.3,1433.4c17.5,3.4,35.9-3.8,54.9-6.7c18.5-2.8,36.4-8.7,55.4-9c11.7-0.2,23.4-3.1,35.1-4.8
		c1.3-0.2,2.6-0.7,3.9-0.6c12.1,1.3,23.3-4.3,35-5.1c10.9-0.8,21.6-2.6,32.3-4.5c15-2.6,30.1-3.7,45.1-5.1c12.5-1.1,25-2.9,37.6-2.5
		c14,0.5,28,0.2,42,0.1c4.1,0,7.8,0.6,11.3,3.1c6.8,4.8,6.9,4.8,1.5,10.9c-3,3.4-2.6,8,1.4,10.7c1.5,1,3.4,2.5,2.3,3.4
		c-4,3.1-4.6,5.3,0,8.3c0.9,0.6,0.7,4.1-0.7,4.3c-5.4,0.8-4.3,8-9.7,9c-3.5,0.6-4.3,5.5-3.8,7.3c1.3,4.5-0.1,7.6-2.7,10.7
		c-2.9,3.3-6.1,6.6-10.5,7c-13.4,1.1-26.5,4.3-39.8,6.1c-10.7,1.4-22.2,1.9-32,8.4c-4.1,2.7-9.2,3.7-14.1,4.3
		c-13.1,1.7-15.5,4-16,16.5c-0.2,6.2-2.4,11.2-6.6,16c-5.2,5.9-8.6,13.3-14.9,18.4c-0.7,0.6-1.2,1.7-1.3,2.6
		c-1.8,16.8-12.6,29.5-19.4,44.1c-1,2.2-2.8,3.8-4.9,4.9c-1.9,1-3,2.6-3.8,4.4c-8.6,19.2-18.3,37.9-25.9,57.5
		c-10,25.9-21,51.3-31,77.2c-5.2,13.5-9.2,27.5-15.4,40.7c-6.4,13.7-12.1,27.8-18,41.9c-1.8,4.3-3.1,8.7-4.6,13.1
		c-1.6,4.6-2.5,9.3-8.6,10.9c-3.1,0.8-4.5,4.7-5.7,7.9c-4.1,10.8-8,21.6-12,32.4c-1.7,4.7-4.6,8.8-6.8,13.3
		c-4.3,8.7-16.9,13.1-27.3,10.5c-12.6-3.2-24.5,0.9-33.2,10.6c-4.4,4.9-8.7,9.9-16.5,8.1c-3.4-0.8-5.7-1.9-5.6-5.7
		c0.2-5.3-0.5-10.6,0.9-15.9c3.2-12.3,5.8-24.8,9.2-37c5.6-20.2,11.3-40.3,17.8-60.2c7.4-22.5,13.3-45.5,21.1-67.9
		c10.1-29.1,21.8-57.6,32.8-86.3c10.7-28,23.3-55.2,34.2-83.1c4.8-12.2,9.7-24.7,16-36.3c1.1-2,2.3-4.1,2.9-6.3
		c0.7-2.7-1.8-4.3-3.3-3.1c-5.2,4.1-10.9,1.8-16.1,1.4c-13.4-0.9-23.7,4.7-32.7,13.7c-0.9,0.9-2,3-2.4,2.8c-8.8-3.3-15,6.8-23.8,4.5
		c-3.4-0.9-7.2-0.6-10.2-3c-0.5-0.4-1-1-1.6-1.1c-18-2.9-22.3-19.3-31-31.4c-1.7-2.4-3.3-4.9-5.5-6.9c-2.3-1.9-4.6-3.5-5.2-6.8
		c-0.5-2.7-2.7-4.5-5.4-5.4c-5.7-2-7.1-7-7-12c0.1-5.5,0.6-11.7,4.2-16c6-7.4,12.9-14,19.7-20.8
		C3172.4,1432.4,3178.4,1433.3,3186.3,1433.4z"/>
	<path fill="#C8C7C8" d="M1450.5,1969.6c9.6-4.3,19.1-8.6,30.5-13.7c-0.6,0.7-0.5,3.3-1.1,2.1c-0.1-0.1-0.6-0.3-0.6-0.2
		c-2.6,5.6-8.4,6.5-13.2,7.3c-4.9,0.7-7.6,4.3-11.6,5.9c-0.2,0.1,0.2,1.8,0.4,2.7C1451.2,1974.8,1451,1972.1,1450.5,1969.6z"/>
	<path fill="#1A3037" d="M1409.3,1849.5c-1.3,0-2.2-0.7-2-1.8c0.4-2.2,0.8-4.6,3.5-5.2c1.2-0.2,1.7,0.8,1.7,1.8
		C1412.5,1846.7,1411.7,1848.7,1409.3,1849.5z"/>
	<path fill="#1A3037" d="M1596,1938.1c-0.3,1.1-1.1,1.6-2.1,1.3c-0.4-0.1-0.9-1-0.8-1.5c0.1-1.1,1-1.6,2-1.3
		C1595.5,1936.7,1595.7,1937.6,1596,1938.1z"/>
	<path fill="#1A3037" d="M1588.3,1926.5c0.5,0.3,1.3,0.5,1.5,0.9c0.3,1-0.2,1.9-1.3,1.9c-0.5,0-1.3-0.4-1.5-0.8
		C1586.7,1927.5,1587.2,1926.8,1588.3,1926.5z"/>
	<path fill="#1A3037" d="M1594.3,1924.5c0.5,0.3,1.3,0.5,1.5,0.9c0.4,1-0.2,1.9-1.3,2c-0.5,0-1.4-0.4-1.5-0.8
		C1592.7,1925.6,1593.2,1924.8,1594.3,1924.5z"/>
	<path fill="#FBFBFB" d="M1593.8,1535.3c0.8,1.1-0.9,0.6,0.4,0.4c0.3,0,0.1-0.5-0.4,0C1593.7,1535.7,1593.8,1535.3,1593.8,1535.3z"
		/>
	<path fill="#FFFFFF" d="M604.8,1529.1c0.2-0.4,0.5-0.9,0.7-1.3c0.2,0.2,0.7,0.5,0.6,0.7c-0.1,0.5-0.4,0.9-0.6,1.3
		C605.3,1529.6,605,1529.4,604.8,1529.1z"/>
	<path fill="#00ABD1" d="M1371.6,240.5c7.5-17.1,15-34.5,21-52.4c6-18,11.9-35.9,15.4-55.1c-3.4,0.8-4,2.9-5.1,4.5
		c-11.2,15.8-20.4,32.8-27.9,50.6c-2.7,6.4-6.3,8.1-12.8,7.9c-12-0.4-23.9-1.5-35.7-3.4c-47.1-7.4-92.8-20.4-138.1-35.1
		c-11.1-3.6-28.2,3.4-33,14c-1.2,2.7,1.9,1.6,3.1,2.1c1.6,2.4,4.2,3.2,6.7,3.8c16.7,3.9,33.4,7.7,50.1,11.5c1.3,0.3,2.2-0.1,2.9-1
		c1.7,0.1,2.3,0.2,3.9,0.3c2.7,4.1,6,6.2,10.8,3c1.4,0.5,2,0.8,3.3,1.3c0.4,1.7,1.5,2.7,3.2,3.2c8.5,2.6,17,5.5,25.6,8
		c18.1,5.4,36.3,10.5,54.8,14.3c2.9,0.6,5.8,1.7,8.5,2.8c10.3,4.5,14.1,12.2,9.8,22.4c-4.8,11.4-6.7,22.9-5.6,35
		c0.9,9.4,2.7,18.5,8.1,27.9c5.5-12.5,9.8-23.9,13.7-35.5c5.5-6.2,8.7-13.8,12.4-21.1c1.9-3.7,3.9-4.9,7.6-2.5
		c1.1,0.7,2.4,0.9,3.7,1.4c39.1,18.9,78.1,37.7,117.2,56.6c4.5,2.2,8.8,4.6,13.2,6.9c0.1,4.6,3.9,5.7,7.2,7.3
		c1.9,0.9,4.8,0.3,5.1,3.8c-3.2,1.4-6.5,0.7-9.7,0.7c-79.1,0-158.2,0-237.3,0c-6.4,0-13.5,1.5-15.6-7.5c-0.1-0.3-1.2-0.4-1.8-0.5
		c-5.8-6.8-13.6-7.5-21.8-7.6c-5.2-0.1-10.4,2.4-15.6,0.7c-0.7-3.5,1.6-6,2.3-8.8c2.9-10.8-2.6-18.7-13.8-19.2
		c-4.3-0.2-8.7,0.3-12.9,1c-4.3,0.7-7.5-0.4-10.7-3.6c-15.1-15.1-29.9-30.4-44.1-46.4c-3.9-4.4-4.8-8.2-2-13.3
		c1.9-3.5,3.3-7.3,4.2-11.2c2.1-9.1-2.5-15.9-11.8-17.3c-2.9-0.4-6.1-0.6-9,0c-8.3,1.8-9-0.6-11.4-7.4c-4.8-13.5-9-27.2-8.4-41.9
		c0.4-11.9,3.2-15,15.3-16.1c54.4-5.2,108.7-10.2,163.1-15.3c48.7-4.6,97.5-9.2,146.2-13.9c6.6-0.6,13.3-1.3,19.2-4.8
		c2.2-1.3,5.1-2.9,4.6-5.9c-0.4-2.3-3.1-3.3-5.3-4.2c-4.4-1.9-9.1-1.9-13.8-1.7c-10.6,0.5-21.3,0.7-31.8,2.6
		c-1.2,0.2-2.6,0.5-3.7-0.5c-0.3-1.6,0.7-2.5,1.8-3.2c34.1-21.1,69-40.3,107.4-52.7c12.7-4.1,24.8-4.7,38-1.4
		c35.5,8.9,71.3,16.8,107.1,24.7c9.6,2.1,18.4,5.8,27.2,9.7c25,11,49.9,22.3,75.4,31.9c-1,2.4-3,2.2-5,1.9
		c-3.9-0.6-7.8-1.3-11.7-1.9c-20.9-3.3-41.8-6.5-62.7-9.8c-4.9-1.3-9.6-4-15.9-0.9c5.3,3.2,10.2,4.3,15.4,4.6
		c16.5,3.9,33,8,49.5,11.6c42.9,9.3,86.3,16.5,129.6,23.7c15.6,2.6,31.1,5.5,46.7,8.3c2,0.6,5.2,1.4,7.1,2c1,0.5,2.1,0.5,3.2,0.2
		c27.8,3.7,50.1,18.9,72.4,34.2c25.3,17.3,50.6,34.6,75,53.1c12,9.1,18.4,20.6,19.4,35.5c0.6,9.7,1.3,19.4,2.5,29
		c1.4,11,0.9,21.7-3,32.3c5.7-3.4,10.3-7.9,12.5-13.4c2.3-5.6,2.3-12.1,3.4-18.7c23.6,23.6,51.5,40.8,76,62
		c17.6,15.3,35.1,30.7,50.8,48c1.1,1.2,2.6,2.1,2.9,4.9c-4.6,0.2-8.8-1-13.1-2.1c-20.5-5.3-39.6-13.8-57.3-25.3
		c-6.6-4.2-13.2-5.9-20.7-5.9c-16.2,0-60.4,10.6-59.9,12.6c5.1-1.2,49.5-4,58.8-2.8c5.4,0.7,10.2,2.5,14.8,5.4
		c26.3,16.2,54.1,28.3,85.3,31.3c6.9,0.6,10.2,6.3,15,11.9c-7.6,0.8-13.5,0.1-19.4-2.7c-16.8-8.1-34.1-14.9-52.1-19.7
		c-2.9-0.8-5.8-1.7-8.8-1.7c-18.6-0.4-37.3-0.9-55.7,2.1c-3.5,0.6-7.1,0.8-10.8,3.7c26.5,0.6,52.1,1.6,77.1,9.2
		c-15.7,5.1-63.6,17.9-71.2,22.2c8.9-1.1,67.9-12,85.8-12.9c10.5-0.5,10.5-0.5,21.6,5.3c-0.2,3.3-3.2,2.8-5.1,3.6
		c-15,6.3-30.1,12.4-45.1,18.5c-4,1.6-8,3-12.3,3.8c-5.2,1-10.4,2.3-15.5,3.7c-13.7,3.7-24.9,10.5-31,24.2
		c-2.3,5.1-14.6,22.3-14.6,27.7c3.7-4.3,20.3-23.9,24.5-29.8c3.5-4.9,7.8-7.9,13.4-9.8c12.7-4.4,25.9-6.2,39.2-7.1
		c11.6-0.8,23.3-0.6,34.9-0.9c3.1-0.1,6.2,0.5,9,1.8c16.3,7.3,32.3,15.3,47.9,24.1c7.3,4.1,11.9,9.7,14.7,17.9
		c9,26.8,18.2,53.6,30.8,79c2.8,5.6,5.2,11.5,10.2,15.8c4.1,4.5,5.4,4.3,5,2.7c-1.4-6.3,2.5-4.4,5.6-4.1c5.2,0.5,10.4,0.9,15.7,1.4
		c-4.5,8.2-8.9,16.4-13.5,24.5c-1.1,2-2.5,4-4.1,5.6c-21.9,21-46.3,38-75.6,47.2c-20.2,6.3-40.7,5.9-61.3,2.6
		c-41.5-6.6-80.6-20.3-118.2-38.8c-10-4.9-17.5-12-22.4-21.9c-4-8.1-7.9-16.1-11.9-24.2c-1.1-2.1-2.1-4.2-0.8-6.6
		c31.1,1.1,62.3,2.2,93.4,3.3c35.8,2.4,71.6,4.9,107.7,7.3c-0.7-1.6-1.7-1.8-2.7-1.9c-18.5-2-36.9-4.4-55.4-5.8
		c-16.5-1.3-33-3.9-49.6-3c-29.4-2.9-58.9-3.9-88.4-4.1c5.3-7.8,14.2-11.7,20.3-18.7c3.9-2.8,8.3-1.8,12.6-1.3
		c15.5,2.1,31,4.1,46.5,6.4c42.1,6.2,84.2,12.6,126.3,18.9c-57.3-14.5-115.8-22.5-174.2-31.3c0.4-2.9,2.4-4.3,4-6
		c1.4-1.5,0.2-3.9-1.8-3.8c-49.9,4-176.6-7.5-184-4c10.5,3.1,112.6,11,149.4,15.4c1.7,0.2,3.3,0.6,4,2.3
		c-11.2,6.1-23.2,10.8-33,19.2c-7.5,1.7-15.1,2.3-22.8,2.4c-25,0.3-125.3,5.8-125.2,5.8c27.2,1.4,93.1-2.1,120.3-1
		c-0.1,3.9-3.7,4.4-6.2,5.7c-22.8,11.7-44.6,25.2-64.9,40.9c-11.8,9.1-22.7,19.8-28.2,34.3c-7.6,20-10.4,41.1-12.4,62.2
		c-1.4,15,0.1,30,2.2,44.7c3.7,26.4,10.5,51.9,23.4,75.7c10.9,20,24.9,37,44.4,48.7c9.2,5.5,18.6,12,30.4,10.9
		c3.3,1.3,6.6,2.6,11.8,4.5c-6.9-9.5-12.7-17.2-18.3-25.2c-5.4-7.8-10.5-15.8-15.4-25.7c6.4,0.8,40.9,27.8,46.8,28.7
		c-1.6,6.8,0.9,11,7.3,14.3c10.7,5.6,21.4,10.7,33.3,13.2c7.5,1.5,14.7,1.4,20.1-5.2c4.7-5.7,9.9-6.7,16.3-2.7
		c1.9,1.2,4.5,1.2,6.8,1.6c5.9,1.2,6.3,1.9,5.3,7.8c-1,5.9-4.6,9.4-10,11.3c-6.3,2.1-12.6,4.3-19,6.3c-4.6,1.4-8.8,3.8-12.3,7
		c-16.4,14.9-32.7,30-50.4,43.3c-2.6,2-5.5,3.7-8.3,5.5c-17.9-0.3-35.8-0.2-53.6-2.7c-17.7-2.4-35.4-4.8-52.9-7.9
		c-10.1-1.8-20.6-2.4-30.5-6.4c0.5-0.9,0.7-1.2,0.9-1.4c1.7-1,3.5-1.8,5.3-2.8c11.6-6.2,13.9-12.7,6.1-23.2
		c-9.8-13.1-21.9-23.9-37.5-30c-0.3-6.6-3.9-11.9-6.8-17.4c-22.1-40.8-53.7-73.1-91.3-99.8c-10.2-7.2-20.8-13.7-32.1-19.1
		c-2.9-2.8-6.1-5-11.2-5.1c3.5,4.4,7.1,7.1,11,9.6c12.5,11.4,25.1,22.7,36.8,34.9c8.7,9.2,17.2,18.6,25.3,28.3
		c2,2.4,4.6,4.5,5.1,8.9c-4.5-0.5-7.3-3-10.3-4.7c-16.7-9.7-33.4-19.3-51.2-26.9c-6.7-2.9-13.6-5.6-20.9-6.7
		c-13.2-1.9-18.7,1.8-22.2,15c-0.2,0.6-0.8,1-1.6,2.1c-52.5-28.4-107-52-166.4-62.4c-14.4-2.5-28.8-4.4-43.7-3.5
		c14.3,3.8,28.7,7.6,43,11.4c4.6,5.8,11.9,6.4,18,9.2c22.4,10.1,45.3,18.8,66.8,31.1c27.7,15.7,53.7,33.4,74.7,57.5
		c11.4,13,22,26.8,25.4,44.5c-0.9,12.6-2.2,25.2-2.6,37.9c-1.6,56,13,108.1,38.1,157.6c12.1,23.8,26.1,46.5,42.6,67.5
		c1.2,1.5,2.8,2.9,3,6.1c-23-7.5-44.7-17-65.8-27.8c0.2-3.1-1.8-4.6-4.1-6.2c-28.9-20.1-57.2-40.9-83.8-64.1
		c-18.2-15.9-36.8-31.5-54.6-48c-21.5-19.9-43.2-39.6-63.5-60.8c-4.3-4.5-7.9-11.1-13.9-12.4c-6.8-1.5-11.6,5.4-17.5,8.3
		c-7.7,3.8-7.9,4.3-13.7-1.3c-21.8-20.8-40.1-44.3-53.7-71.4c-8.2-16.4-15.4-33.1-21.3-50.4c-7-20.5-11.8-41.4-16-62.6
		c-3.1-16-4.7-32.1-6.4-48.2c-1.7-16.5-3.7-32.9-3.6-49.6c0.2-27.9-0.9-55.9,2-83.7c1-9.2,1.1-18.6,2.4-27.7
		c2.4-16.7,3.1-33.6,7.3-50.1c0.6-2.2,1.4-5.3-1.8-7.4c-8.5,2.3-17.1,4.7-25.7,6.8c-4.8,1.2-6.6-0.4-5.3-5c1.3-4.5,1.2-9.2,2.3-13.7
		c3.5-14.2,7.3-28.3,12-42.1c1.4-4,1.3-8.9,4-12.2c3.6-4.5,8.7-0.5,13.1-0.5c24.6,0.4,49.2-0.7,73.8,1.5c23.1,2,46.5,0.2,69.7,2.1
		c24.2,1.9,48.5-0.3,72.8,1.9c21.8,2,43.8,0.1,65.7,2c23.5,2,47.1-0.2,70.8,2c23.5,2.1,47.1-0.2,70.8,2c17.2,1.6,34.6,0.5,51.9,0.4
		c2.9,0,6.1,1,8.2-2.1c13.4,1.3,26.8,2.6,40.2,3.9c0.3-0.7,0.3-0.7,0.6-1.5c-6.7-5.8-13.3-11.6-20-17.3
		c-21.6-18.3-43.3-36.5-64.9-54.8c-0.7-0.6-1.3-1.5-1.9-2.3c7-0.6,14-1.5,21-1.8c8.3-0.4,16.7,0.8,24.8-0.5
		c22-3.3,44.3,0.2,66.2-3.5c5.6,2.6,10.1,0.9,14-3.4c5.3-1.1,10.4,0.9,15.6,0.9c0.8,0.1,1.7,0.2,2.5,0.2c3.6,0.3,7.3,0.3,10.8,1
		c19.5,3.5,36.9-1.7,51.8-14c5.5-4.5,9.7-5.9,15.5-1.9c1,0.7,2.5,0.7,3.7,1.1c0.3,1,0.9,1.5,1.9,1.3c0.2,0,0.6-1,0.4-1.2
		c-0.5-0.7-1.2-1.3-2.1-0.5c1.5-3.1-1.2-4.8-2.5-6.8c-3.8-5.7-7.9-11.2-11.8-16.8c0.1-5.8,0.2-11.7,0.3-17.5
		c17.3,3.6,33.5-1.9,51.6-6.4c-3.5-2.6-6.1-1.7-8.4-2.1c-4.6-0.7-9.2-1.2-13.8-1.9c-14.9-2.3-18.7-6-21.2-20.1c-0.2-1-0.2-1.9,0-2.9
		c0.3-1.4,0.6-2.8,1.2-4.1c7.4-16.4,2.4-45.7-3.7-62.3c-10.3-25.6,6.7,38.8-3.5,51.8c-3.6-7.5-5-15.3-8.7-22
		c-4.2-7.7-53.1-44.1-62.3-45.7c1.4,6.7,29.1,25.9,33.2,28.9C1952.6,258,1375.2,243.9,1371.6,240.5z"/>
	<path fill="#E1457B" d="M956.4,345.7c220.6,0,441.3,0,661.9,0c0.1-0.5,0.3-1,0.4-1.6c-54.4-26.2-108.8-52.4-163.7-78.9
		c2.2-2.7,4.7-1.8,6.7-1.8c59.3,1.5,118.6,3,177.9,4.6c71.6,1.9,143.2,3.9,214.8,5.9c37.3,1,74.6,2.1,111.9,3.2
		c7.7,0.2,8.3,0.6,10,8.2c1.2,5.2,1.8,10.5,2.8,15.7c0.7,4-0.9,5.7-4.7,7.3c-30.8,12.7-62.7,20.2-96,21.4c-2,0.1-3.9,0.3-5.9,0.4
		c-0.3,3.8,2.7,3.6,4.6,4.3c7.2,2.7,14.5,5.1,22.1,6.4c3.5,0.6,6.2,1.9,8.3,4.9c7.7,11,12.6,23.2,15.8,37.3
		c-71.1-5.3-141.4-8.3-212.2-10.5c30.4,28.2,62.5,54.1,92.6,83c-282.4-35.9-564.9-71.9-847.3-107.8
		C956.3,347.1,956.3,346.4,956.4,345.7z"/>
	<path fill="#0A819C" d="M1822.6,477.5c-2.1,3.1-5.4,2.1-8.2,2.1c-17.3,0-34.8,1.2-51.9-0.4c-23.6-2.2-47.3,0.1-70.8-2
		c-23.6-2.2-47.3,0.1-70.8-2c-22-1.9-44,0-65.7-2c-24.3-2.2-48.6,0-72.8-1.9c-23.3-1.9-46.6-0.1-69.7-2.1
		c-24.6-2.1-49.2-1.1-73.8-1.5c-4.3-0.1-9.5-4-13.1,0.5c-2.6,3.3-2.6,8.2-4,12.2c-4.8,13.8-8.5,27.9-12,42.1
		c-1.1,4.6-1,9.2-2.3,13.7c-1.4,4.6,0.4,6.1,5.3,5c8.7-2.1,17.3-4.6,25.7-6.8c3.1,2.1,2.3,5.1,1.8,7.4c-4.1,16.5-4.9,33.4-7.3,50.1
		c-1.3,9.2-1.5,18.5-2.4,27.7c-2.9,27.9-1.9,55.8-2,83.7c-0.1,16.6,1.9,33.1,3.6,49.6c1.6,16.2,3.3,32.3,6.4,48.2
		c4.1,21.2,9,42.1,16,62.6c5.9,17.3,13.1,34.1,21.3,50.4c13.6,27,31.9,50.5,53.7,71.4c5.8,5.6,6,5.1,13.7,1.3
		c5.9-2.9,10.7-9.8,17.5-8.3c6,1.3,9.6,7.9,13.9,12.4c20.3,21.2,42,40.9,63.5,60.8c17.7,16.4,36.4,32,54.6,48
		c26.6,23.2,54.9,44,83.8,64.1c2.3,1.6,4.3,3.1,4.1,6.2c-2.5,0.4-4.5-1-6.6-2c-35.1-16.8-69-35.9-101.8-56.9
		c-1.4-0.9-2.5-2.1-3.7-3.2c2.3-2.6-0.4-3.6-1.7-4.6c-25.7-18.2-50.5-37.4-75-57.2c-2.3-1.8-4.6-2.6-7.3-2.2c0,0,0,0.1,0.1,0.1
		c-2.6-7.5-4.4-9-9.9-8.2c-5.5-2.7-8.9-7.9-13.4-11.8c-2.9-2.5-5.1-2.5-7.7,0.2c-3.7,3.9-7.6,7.5-11.2,11.4c-3.5,4-6.2,3.3-9.8-0.2
		c-19.8-19-37.7-39.6-53.9-61.6c-42.2-57.2-72.4-120.2-90.9-188.8c-9.1-33.8-15.2-68.1-17.9-103.1c-2.5-32.6-2.7-65.2,0.1-97.8
		c0.4-4.9,0.1-9.9,0.1-15.6c-7.4,3.8-9.7,12.3-16.6,17.6c-2.3-8.1-1.2-15.5-0.6-22.8c2.8-34.8,6.6-69.6,13.4-103.9
		c3-15.3,6.8-30.5,9.9-45.9c1-5.1,3.5-6.5,8.4-5.8c21.4,2.9,42.9,5.5,64.3,8.3c29,3.7,58.1,7.5,87.1,11.2
		c40.6,5.3,81.2,10.6,121.7,15.8c29,3.7,58.1,7,87.2,10.7c27.1,3.4,54.1,6.9,81.2,10.4c29.7,3.8,59.4,7.6,89.1,11.5
		C1817.7,475.9,1820.6,475.2,1822.6,477.5z"/>
	<path fill="#E1457B" d="M2015.4,854.9c-16.1-7.7-29.3-15.3-42.4-23.3c-4.3-2.7-5.7-5.7-4.1-10.7c2.3-6.9,5.7-14.5,3.1-21.4
		c-2.5-6.6-11-8-16.7-11.8c-7-4.7-7.1-4.5-4.4-12.4c4.8-14.2,4.8-14.3-8.3-21c-7.5-3.8-14.3-8.6-20.4-14.3c-3.2-3-5.8-6.2-5.2-11.3
		c2-16.6,4.3-33,9.9-48.9c2.5-7,6-13.3,10.8-19c2.5-3,4.5-4.4,8.1-1.4c13.7,11.2,27.1,22.6,38.4,36.3c4,4.8,5.8,10,6,16.4
		c1.4,37.3,4.9,74.4,14.1,110.8C2007,833.1,2010.8,842.9,2015.4,854.9z"/>
	<path fill="#0A819C" d="M1965.2,911.3c-11.8,1.2-21.2-5.3-30.4-10.9c-19.5-11.7-33.5-28.7-44.4-48.7c-13-23.7-19.7-49.3-23.4-75.7
		c-2.1-14.7-3.6-29.8-2.2-44.7c2-21.1,4.7-42.2,12.4-62.2c5.5-14.5,16.4-25.2,28.2-34.3c20.3-15.6,42-29.1,64.9-40.9
		c2.5-1.3,6-1.7,6.2-5.7c4.8-0.2,9.7-0.4,14.5-0.5c-1,3.6-4.3,4.9-7,6.8c-16.7,12-33.3,24.2-49.2,37.4c-19.7,16.3-30.9,37-36,61.5
		c-8.4,40.3-7.9,80.5,1.8,120.6c7.7,31.3,22.3,58.8,45.2,81.8C1951.8,901.7,1959.4,905.2,1965.2,911.3z"/>
	<path fill="#0A819C" d="M1665.3,928.7c-3.4-17.7-14-31.5-25.4-44.5c-21-24-47-41.7-74.7-57.5c-21.5-12.2-44.5-20.9-66.8-31.1
		c-6.1-2.8-13.4-3.4-18-9.2c14.2,2.2,27.5,7.5,40.8,12.6c60.2,23.2,117.1,52.8,170.2,89.7c2.6,1.8,4.9,4.5,10.3,4.5
		c-8.7-17.8-23.1-31.2-31-48.6c11.9-0.6,78,33.6,92.7,47.9c-29.5,11.6-40.3,15.7-68.5,57c-8.1-6.3-16.2-12.6-24.2-18.9
		C1668.9,929.5,1667.6,928,1665.3,928.7z M1703.6,897l0.3-0.5l-0.5-0.1L1703.6,897z"/>
	<path fill="#091214" d="M1236.3,192.2c-1.2-0.3-2.5-0.6-3.7-0.9c-3.1-2.2-6.5-3.4-10.3-3.1c-1.2-0.3-2.5-0.6-3.7-1
		c-1.1-0.6-2.1-1.5-3.3-1.9c-13.2-4.3-26.6-8-39.6-12.9c-5.4-2-11.6-2.7-17.1,1.1c-1.3-0.5-4.3,0.6-3.1-2.1
		c4.8-10.6,21.9-17.6,33-14c45.3,14.7,90.9,27.7,138.1,35.1c11.8,1.9,23.7,3,35.7,3.4c6.5,0.2,10.1-1.5,12.8-7.9
		c7.5-17.8,16.7-34.7,27.9-50.6c1.1-1.6,1.7-3.7,5.1-4.5c-3.5,19.2-9.4,37.2-15.4,55.1c-6,17.9-13.5,35.3-21,52.4
		c3.6,3.4,8,6.2,6.6,7.8c-1.2-0.4-2.6-0.7-3.7-1.4c-3.7-2.3-5.7-1.2-7.6,2.5c-3.8,7.2-6.9,14.8-12.4,21.1c-0.5-9.3,0-18.5,1.8-27.7
		c1.5-7.5,4-14.7,5.9-22.1c1.5-5.5,0.8-6.4-5-6.8c-6.6-0.5-13.3-0.2-19.9-1.1c-25.3-3.4-50.3-8.4-75.1-14.5
		C1253.6,196.3,1245.4,192.6,1236.3,192.2z"/>
	<path fill="#02A8CD" d="M2292.4,526.2c-3.8-6.4-3.7-13.8-5.6-20.7c-4.5-15.9-10.1-31.4-18.2-45.9c-0.7-2.6-2.6-4.1-4.8-5.3
		c-0.7-1.4-1.5-2.6-3.3-2.6c-0.1-0.3-0.1-0.6-0.3-0.8c-0.1-0.1-0.5-0.1-0.5-0.1c-0.1,0.6,0.2,0.8,1,0.7c-0.8,1.9,0.1,3.3,1.4,4.6
		c0.3,1.5,0.9,2.8,2.3,3.5c3.5,9,7.9,17.7,10.6,29.4c-18.3-16.2-38.5-24.9-57.7-35.1c-7.3-3.9-14.7-5.9-23-5c-1.9,0.2-3.8,0-5.9,0
		c0.5-3.9,3.4-3.5,5.4-4.2c9.2-3.1,18.3-6.3,27.6-8.8c17.2-4.7,33.4-3.2,48,8.2c8.7,6.8,17.3,13.6,26.3,19.9
		c16.3,11.4,29.9,25.3,41.7,41.3c8.7,11.8,17.7,23.4,26.3,35.3c3.9,5.5,3.4,6.2-2.9,10.4c-7.1-8.8-16.7-14.9-24.5-23
		c-2-2-4.5-2.5-7.3-2.6C2316.8,525.2,2304.6,524.6,2292.4,526.2z"/>
	<path fill="#0A819C" d="M1816.8,921.8c15.6,6.1,27.7,16.9,37.5,30c7.8,10.5,5.5,17-6.1,23.2c-1.8,0.9-3.5,1.8-5.3,2.8
		c-0.2,0.1-0.3,0.5-0.9,1.4c9.9,4,20.4,4.6,30.5,6.4c17.6,3.1,35.2,5.5,52.9,7.9c17.8,2.4,35.7,2.3,53.6,2.7
		c-6.4,6.5-14.3,10.7-22.1,15.2c-4.1,2.3-8.6,3.2-13.4,2.8c-40.9-2.9-81-10.2-119.7-23.8c-6.6-2.3-13.1-4.8-19.5-7.4
		c-2-0.8-4.7-1-5.3-4.9c8.2-2,16.4-4.2,24.7-5.8c5.1-1,8.8-2.9,10.1-8.1c1-3.9-2.5-9-7.5-11.9c-9-5.3-17.9-10.8-27.6-14.9
		c-1.7-0.7-4-1.2-4.4-4.4C1801.2,928.2,1808.5,924,1816.8,921.8z"/>
	<path fill="#FFFFFF" d="M2100.4,769.5c5.3-9.6,12.5-17.9,19-26.6c9.3-12.5,15.7-26.1,17-41.8c0.2-2.3,0.9-4.6,1.1-6.9
		c0.4-4.5,2.7-5.4,6.8-4.2c18.9,5.3,38.1,8.7,60,10.1C2172.4,729.5,2100.8,769.9,2100.4,769.5z"/>
	<path fill="#F2F2F3" d="M1990.1,893.6c-5.9-1-10.3-4.9-15.2-7.7c-2-1.6-33.6-40.9-41.9-53.6c-8.4-12.8-13.8-26.3-14.9-41.7
		c-0.7-9.9-1.7-19.7-1.7-29.6c1.1-0.1,1.9-0.4,2.3-0.2c4.6,3.1,11.1,5.4,13.3,9.8c2.4,4.7-2.5,10.5-4.5,15.7c-1.6,4.1-0.2,6.1,3.1,8
		c6.4,3.6,12.6,7.5,19,11c3.3,1.8,4.2,3.7,2.9,7.2c-1.3,3.4-2.1,7-3.2,10.5c-2.7,8.6-2.1,11,5.3,17.1c10.3,8.6,22.1,14.7,33.7,21.3
		c4.6,2.6,11.4,3.5,13,8.3C2002.7,874.1,1991.8,890,1990.1,893.6z"/>
	<path fill="#1F2125" d="M1898.7,127.4c-15.7-2.8-31.4-5.7-47.1-8.4c-43.3-7.3-86.7-14.4-129.6-23.7c-16.6-3.6-33-7.7-49.5-11.6
		c-0.5-1.3-0.1-2.6,0.5-3.8c20.9,3.3,41.8,6.5,62.7,9.8c3.9,0.6,7.8,1.3,11.7,1.9c2,0.3,4,0.5,5-1.9c20.2,9.4,42.1,9.5,63.6,12
		c9.8,1.2,19.6,3.1,29.3,4.9c19.8,3.7,39.7,6.4,59.5,10c3,0.5,5,1.1,4.1,5c-0.6,2.5-0.3,5.3-0.4,7.9c-1.5,0.4-2.9,0.2-4.1-0.8
		C1903.3,125.1,1901.3,124.9,1898.7,127.4z"/>
	<path fill="#F2F2F3" d="M1988.7,342.2c-0.1,5.8-0.2,11.7-0.3,17.5c-3.6,3.9-7.1,7.9-10.9,11.6c-8.3,8.4-18.7,12.5-30.2,14.1
		c-3.5,0.5-5.5-0.4-7-3.9c-5.5-13.2-12.2-25.8-21.8-38.3c20.7,0,38.5-7.2,57.4-13.2c-0.2,7.6-9.5,27.4-12.2,31
		c5.1-2.4,14.9-17.2,20.4-24C1987.2,337.9,1986.8,341,1988.7,342.2z"/>
	<path fill="#F2F2F3" d="M2100,831.3c0.3,6-2.5,9.4-4.6,12.9c-9.1,15-21.7,26.8-34.2,38.8c-6,5.7-12.7,10.7-18.8,16.4
		c-3.9,3.7-7.8,4.1-12.7,2.7c-5.5-1.6-10.5-4-15.7-6.2c-3.5-1.4-3.2-3.5-1.7-6.3c4.8-8.8,9.9-16.4,20.6-20.2
		c20.7-7.4,39-19.9,57.4-31.8C2093.2,835.8,2096.2,833.9,2100,831.3z"/>
	<path fill="#02A8CD" d="M1256.5,315.6c0.6,0.2,1.8,0.2,1.8,0.5c2.1,9,9.2,7.5,15.6,7.5c79.1,0,158.2,0,237.3,0
		c3.2,0,6.5,0.7,9.7-0.7c-0.3-3.5-3.2-2.9-5.1-3.8c-3.3-1.6-7-2.7-7.2-7.3c9.9,4.5,19.9,8.9,30.4,13.7c-2,0.8-0.3,0-0.8,1.2
		c-0.1,0.2-0.4,0.6-0.6,0.6c-93.7,0-187.4,0-281.5,0C1254.8,323.2,1258,319.4,1256.5,315.6z"/>
	<path fill="#E1457B" d="M2313.2,586.6c-4.4-12.9-11.3-24.8-16.7-37.3c-2.1-4.9-4.3-9.8-3.8-15.3c10.2-0.1,20.5-0.1,30.7-0.5
		c5.1-0.2,8.7,1.6,12.3,5c7.3,6.7,13.8,14.3,22.4,19.4c0.5,4.8-2.3,4.9-5.6,3.7c-6.4-2.3-12.5-5.9-15.7-11.6
		c-6.6-11.6-16.9-9.4-27-8.8c-2.5,0.1-4.6,1.4-4,4.4c2.4,13.8,7.6,26.7,12.9,39.5c1.1,2.6,3.6,2.5,6,2.4c4.6-0.3,9.2-0.6,13.9-0.7
		c1.5-0.1,3.7-0.7,3.6,1.8c-0.1,2-2.3,2-3.6,2.9C2330,590.3,2321,591.9,2313.2,586.6z"/>
	<path fill="#08090A" d="M1990.9,587.7c-4.8,0.2-9.7,0.3-14.5,0.5c-27.2-1.1-121.8,3.3-120.3,1c0,0,100.2-5.5,125.2-5.8
		c7.7-0.1,15.3-0.7,22.8-2.4c1,1.4,2.2,2.5,3.9,2.5c8.7,0.1,17.4,0.2,26.1,0.3c29.5,0.2,59,1.2,88.4,4.1c0,1.1,0,2.2,0,3.3
		c-31.1-1.1-62.3-2.2-93.4-3.3C2016.4,587.9,2003.6,587.8,1990.9,587.7z"/>
	<path fill="#02A8CD" d="M1902.6,396.4c-3.9,4.3-8.4,6-14,3.4c-1.3-1.9-3.3-2.1-5.3-2.1c-23,0.9-45.8-2.6-68.8-2.2
		c-14.6,0.2-29.3,1.4-43.8-1.1c-1.4-0.2-3,1.1-4.6,1.7c-1-0.2-2.4-0.1-2.8-0.7c-1.7-2.3-5-3.3-6-6.9c8.3,0,16.4-0.4,24.4,0.1
		c33.1,1.7,66.1,3.6,99.2,5.5C1888.2,394.4,1895.5,394.6,1902.6,396.4z"/>
	<path fill="#0A819C" d="M1766.1,396c1.5-0.6,3.2-1.9,4.6-1.7c14.6,2.5,29.3,1.3,43.8,1.1c23-0.3,45.8,3.1,68.8,2.2
		c2-0.1,4,0.2,5.3,2.1c-21.9,3.7-44.2,0.2-66.2,3.5c-8.1,1.2-16.5,0.1-24.8,0.5c-7,0.3-14,1.2-21,1.8
		C1772.5,403.1,1768.9,400,1766.1,396z"/>
	<path fill="#1F2125" d="M2358.1,557.8c-8.6-5.1-15.1-12.7-22.4-19.4c-3.6-3.3-7.2-5.2-12.3-5c-10.2,0.5-20.5,0.4-30.7,0.5
		c-0.1-2.6-0.2-5.2-0.3-7.7c12.2-1.6,24.4-1,36.6-0.7c2.7,0.1,5.3,0.5,7.3,2.6c7.8,8,17.4,14.2,24.5,23
		C2360.5,553.6,2361,556.3,2358.1,557.8z"/>
	<path fill="#02A8CD" d="M1484.4,1043.9c2.8-0.4,5.1,0.4,7.3,2.2c24.4,19.8,49.3,39,75,57.2c1.3,0.9,4,2,1.7,4.6
		c-20.1-11.6-38.2-25.9-56.4-40.2C1502.5,1060.1,1492.2,1053.4,1484.4,1043.9z"/>
	<path fill="#1F2125" d="M2313.2,586.6c7.7,5.3,16.8,3.7,25.4,4.9c-0.2,2.7,0.9,5.8-1.6,8.1c-5.2-0.5-10.4-0.9-15.7-1.4
		c-3-0.3-6.9-2.1-5.6,4.1c0.3,1.6-1,1.8-5-2.7C2314.4,595.8,2311.5,590.8,2313.2,586.6z"/>
	<path fill="#1A3037" d="M1686.4,790c-3.9-2.4-7.5-5.2-11-9.6c5.1,0.1,8.3,2.4,11.2,5.1C1686.5,787,1686.4,788.5,1686.4,790z"/>
	<path fill="#02A8CD" d="M1474.5,1035.8c5.5-0.8,7.2,0.7,9.9,8.2C1480.2,1042.3,1477.3,1039.2,1474.5,1035.8z"/>
	<path fill="#FFFFFF" d="M1243.4,323.4c-6.9,6.3-13.5,3.1-19.5,3.4C1229.6,324.6,1235.5,323.4,1243.4,323.4z"/>
	<path fill="#1A3037" d="M2263.8,454.3c2.2,1.2,4.1,2.7,4.8,5.3c-1.4,0-2.8,0-4.2,0c-1.4-0.7-2-2.1-2.3-3.5
		C2262.6,455.5,2263.2,454.9,2263.8,454.3z"/>
	<path fill="#0A819C" d="M1920.7,397.6c-0.8-0.1-1.7-0.2-2.5-0.2C1919.1,396.5,1920,396.5,1920.7,397.6z"/>
	<path fill="#1A3037" d="M2230.5,701.6c0.3-0.3,0.7-0.5,1-0.8c-0.3,0.3-0.5,0.7-0.8,1C2230.7,701.8,2230.5,701.6,2230.5,701.6z"/>
	<path fill="#00ABD1" d="M1942.7,862.9c0.2-0.2,0.4-0.4,0.7-0.6c0.2,0.1,0.4,0.2,0.6,0.3"/>
	<path fill="#00ABD1" d="M1755.3,862.2c0.2,0.2,0.6,0.5,0.6,0.7c0,0.2-0.4,0.5-0.6,0.7c-0.2-0.2-0.6-0.5-0.7-0.7
		C1754.6,862.7,1755,862.4,1755.3,862.2z"/>
	<path fill="#1A3037" d="M2228.3,703.4c0.7-0.6,1.5-1.2,2.2-1.8c0,0,0.2,0.2,0.2,0.2c-0.6,0.7-1.2,1.4-1.8,2.1
		C2228.9,704,2228.3,703.4,2228.3,703.4z"/>
	<path fill="#0A819C" d="M1236.3,192.2c9.1,0.3,17.3,4.1,26,6.2c24.8,6.1,49.8,11.1,75.1,14.5c6.6,0.9,13.3,0.6,19.9,1.1
		c5.8,0.4,6.5,1.3,5,6.8c-1.9,7.4-4.4,14.6-5.9,22.1c-1.9,9.2-2.3,18.4-1.8,27.7c-3.9,11.6-8.3,23-13.7,35.5
		c-5.4-9.4-7.2-18.6-8.1-27.9c-1.1-12.1,0.8-23.6,5.6-35c4.3-10.2,0.5-17.9-9.8-22.4c-2.7-1.2-5.6-2.3-8.5-2.8
		c-18.5-3.8-36.7-8.9-54.8-14.3c-8.6-2.5-17.1-5.4-25.6-8C1237.8,195,1236.7,194,1236.3,192.2z"/>
	<path fill="#08090A" d="M2007.6,940.8c-7.8,7.3-17.4,9.4-27.2,10.3c-15.7,1.6-31.1-0.7-46.1-5.7c-4.9-1.6-8.9-4.2-11.9-8.5
		c-9.7-14-16.7-29.3-21.4-46.1c3.3-0.5,4.4,1.8,5.8,3.2c8.9,8.5,17,17.8,24.8,27.3c3.6,4.3,7.7,7,13.1,8.3
		C1965.4,934.8,1986,939.7,2007.6,940.8z"/>
	<path d="M1881.5,544c-0.7-0.3-0.5-1.2,0.3-1.2c18.9,1.3,184,2.6,189.6,4.9c-0.1,4.6-5.3,5.4-5.9,10.2
		c58.4,8.8,116.9,16.8,174.2,31.3c-42.1-6.3-84.2-12.7-126.3-18.9c-15.5-2.3-31-4.3-46.5-6.4c-4.3-0.6-8.6-1.5-12.6,1.3
		c-4.8-6.4-11.1-4.6-17.3-3.3c-0.8-1.8-8.6-1.1-10.3-1.3C1989.3,557.7,1882.6,544.4,1881.5,544z"/>
	<path fill="#08090A" d="M2030.7,515.6c8.5,1.9,67.2,12.7,75.7,10.3c2.2-0.6,4.6-0.7,6.8-1.3c14-3.9,28.2,8.7,32.5,12.1
		c0.4,0.3,0.2,1-0.3,1c-4.3-0.1-7.6-3.2-11.4-4.7c-6.4-2.6-8-2.8-16.7,0.9c-0.5,0.2-0.4,0.9,0,1c25.2,8,97.8,29.9,122.5,45.7
		c-0.9,2.5-100.7-33.9-126.1-41.4c-7.8-2.3-15.2-3.3-23.3-1.3c-10.7,2.7-21.6,4.2-34.4,5.3c-0.6,0-0.8-0.7-0.4-1
		c7.3-5,14.5-6.5,21.3-8.5c2.8-0.8,4.2-1.5,2.2-3.9C2038.1,523.5,2029.8,517.2,2030.7,515.6z"/>
	<path fill="#091214" d="M2047.7,434.7c5.3,11,7.3,20.5,6.8,30.6c-0.1,2.4-0.7,4.6-2.3,6.5c-10.8,12.6-23.1,23-39.7,26.9
		c-0.9,0.2-1.9-0.1-3.4-0.3c1.3-4,4.7-5.7,7-8.4c2.1-2.5,4.4-5,6.8-7.3c12.3-11.5,22.9-23.9,22.9-42.1
		C2045.8,439.4,2046.6,438.1,2047.7,434.7z"/>
	<path fill="#1A3037" d="M2071.1,609.4c55.6-6.3,111.2-6.2,166.7,0C2182.2,609.4,2126.6,609.4,2071.1,609.4z"/>
	<path fill="#08090A" d="M2037.1,561.8c6.2-1.3,12.6-3.1,17.3,3.3c-6.1,7-15,10.9-20.3,18.7c-8.7-0.1-17.4-0.2-26.1-0.3
		c-1.8,0-3-1.1-3.9-2.5C2013.9,572.6,2025.9,567.9,2037.1,561.8z"/>
	<path fill="#091214" d="M2037.1,420.6c15,21-3.8,43.7-21.7,47.5C2015.9,463.7,2033.3,425.5,2037.1,420.6z"/>
	<path fill="#1A3037" d="M2122.5,591.3c0-1.1,0-2.2,0-3.3c16.7-1,33.1,1.7,49.6,3c18.5,1.4,36.9,3.8,55.4,5.8c1,0.1,1.9,0.3,2.7,1.9
		C2194.2,596.1,2158.3,593.7,2122.5,591.3z"/>
	<path fill="#1A3037" d="M2176.5,528c-0.8-0.4-1.5-1.1-2.2-1.7c0.2-1.7,1.3-1.3,2.1-1c24.4,8,46.1,20.5,64.5,38.6
		c1.6,1.6,10.6,9.8,10.9,12.4C2251.7,576.3,2200,539.9,2176.5,528z"/>
	<path fill="#0A819C" d="M1158.5,173.6c5.5-3.7,11.8-3.1,17.1-1.1c13,4.9,26.4,8.5,39.6,12.9c1.2,0.4,2.2,1.3,3.3,1.9
		c-0.7,1.2-1.7,1.9-3.2,1.6c-16.7-3.8-33.4-7.6-50.1-11.5C1162.7,176.8,1160.1,176,1158.5,173.6z"/>
	<path fill="#1F2125" d="M1672.9,79.9c-0.6,1.2-1,2.4-0.5,3.8c-5.2-0.4-10.1-1.5-15.4-4.6C1663.3,75.9,1668.1,78.6,1672.9,79.9z"/>
	<path fill="#0A819C" d="M1222.3,188.3c3.8-0.3,7.2,0.9,10.3,3.1C1228,194.1,1224.9,192.1,1222.3,188.3z"/>
	<path fill="#08090A" d="M1898.7,127.4c2.6-2.5,4.6-2.3,5.8,1.4C1902.5,128.3,1900.6,127.8,1898.7,127.4z"/>
	<path fill="#08090A" d="M2002.8,383.3c0.9-0.8,1.6-0.1,2.1,0.5c0.1,0.2-0.2,1.1-0.4,1.2c-1,0.2-1.6-0.3-1.9-1.3L2002.8,383.3z"/>
	<path fill="#1A3037" d="M2248.6,575.7"/>
	<path fill="#1F2125" d="M2146.7,537.6"/>
	<polygon fill="#08090A" points="1703.6,897 1703.4,896.4 1703.9,896.5 	"/>
	<path fill="#1A3037" d="M2260.5,451.7c1.8,0,2.6,1.2,3.3,2.6c-0.6,0.6-1.2,1.2-1.7,1.8c-1.3-1.3-2.1-2.7-1.4-4.6L2260.5,451.7z"/>
	<path fill="#1A3037" d="M2260.7,451.6c-0.7,0.2-1.1-0.1-1-0.7c0,0,0.5,0,0.5,0.1c0.2,0.2,0.2,0.5,0.3,0.8
		C2260.5,451.7,2260.7,451.6,2260.7,451.6z"/>
</g>
</svg>
