<?xml version="1.0" encoding="utf-8"?>
<!-- Generator: Adobe Illustrator 26.0.3, SVG Export Plug-In . SVG Version: 6.00 Build 0)  -->
<svg version="1.0" id="Layer_1" xmlns="http://www.w3.org/2000/svg" xmlns:xlink="http://www.w3.org/1999/xlink" x="0px" y="0px"
	 viewBox="0 0 905 710.4" style="enable-background:new 0 0 905 710.4;" xml:space="preserve">
<style type="text/css">
	.st0{fill:#FFFFFF;}
	.st1{fill:#00ACD2;}
	.st2{fill:#0B819B;}
	.st3{fill:#E3457C;}
</style>
<path class="st0" d="M621,237.5c8.8,0.3,17.1-3.1,25.4-5.8c-1.8,5.1-3.1,10.8-7.2,14.5c5.2-2.1,7.5-7.6,10.4-12.1l1.4,3
	c0.1,2.4,0.1,4.8,0.2,7.2c-4.5,6.5-11.6,11.2-19.6,11.4C628.7,249.2,625.7,242.7,621,237.5z"/>
<path class="st0" d="M715,384.6c9.2,2.7,18.7,4.4,28.3,4.9c-7.6,6.6-15.3,13.1-23.2,19.3c-7.2,5-15.3,8.4-23.2,12.1
	c5.3-6.9,10.9-13.7,15.1-21.3C713.7,394.8,714,389.6,715,384.6z"/>
<path class="st0" d="M715.8,420.8c14.4-8.8,26.9-20.3,39.2-31.8c-5.7,6.6-11.3,13.3-17.8,19.1C730.5,412.9,723.3,417.2,715.8,420.8z
	"/>
<path class="st0" d="M667.6,462.8c11.3-4.3,21.3-11.2,31.5-17.6c-1.3,5.3-4.9,9.5-8.4,13.5c-5.7,6.2-11.9,12-18.6,17.1
	c-4.3,0.4-8.1-2.1-12-3.6C662.4,469,663.4,464.1,667.6,462.8z"/>
<path class="st0" d="M704.8,452.3c0.9-2.3,3.7-2.7,5.7-3.8c-4.3,8.6-11.4,15.4-17.9,22.4c-1.4,1.6-3.3,2.6-5.5,2.6
	C693.7,467,700.6,460.6,704.8,452.3z"/>
<path d="M381.6,126.8c22-15.4,45.7-29.3,72.1-35.4c19.8,5.2,39.9,9.4,59.8,14c10.3,4.1,20.4,9,30.8,13.2c9.5,3.9,18.8,8.3,28.9,10.6
	c17.9,4.5,36.2,7.4,54.2,11.7c6.7,1.3,12.2,5.6,18,9.1c13.8,9.1,27.5,18.3,40.6,28.5c10.5,7.8,10.1,22.9,19,31.9
	c18,13.8,36.5,27.4,51.5,44.6c9,12.2,21.3,21.4,33.5,30.4c7.4,5.1,12.6,12.5,18.1,19.3c4.6,6.1,9.7,12.1,12.9,19.1
	c-6.5,11.5-12.6,23.3-19,34.8c-3.1,6.5-9.1,10.8-14.6,15.2s-12.1,7.6-18.3,11.1c-8.8,9.8-17,20.3-26.9,29.1
	c-11,8.4-23.8,13.9-35.9,20.5c0.1,2.5,0.1,5,0.1,7.5c4.3-1.6,8.8-3.2,13.3-4.5c0.4,4.1,1,8.5-1,12.4c-5,10.5-13.2,19-21.3,27.2
	c1.2,5.6,0.4,12.1-4,16.2c-5,4.8-13.2,3.7-17.9,8.8c-9.2,8.4-18.6,16.7-28.9,23.6c-4.6,2.8-9.7,6.2-15.3,5.3
	c-28.7-2.4-58.3-8.8-82.3-25.7c7.3-2.2,14.8-4,22.2-5.9c-7.1-3.7-14.5-6.6-21.6-10.2c6-3.5,13.1-5.6,18.3-10.3
	c-6.6-0.9-13.3,0.4-19.1,3.7c-9.3,5.4-15.5,14.9-18.8,25c-3.8-0.4-6.4-4.8-9.9-6.4c-1.3,35,13.6,68.8,35,95.8
	c6,8,13.5,14.7,20.4,21.9c-22.5-6.9-44.7-14.6-65.8-25.2c-30.8-15-59.3-34.3-84.6-57.2c-2.8,2.9-5.6,5.7-8.4,8.6
	c-53.3-47.6-82-119.8-79.7-190.9c-2.5,3-4.8,6.1-7.1,9.2c-0.6-33.6,3.5-67.2,12.4-99.6c-37.8-4.7-75.3-9.6-113-14.3
	c-48.4-6-96.8-12.7-145.3-18.3c2.6-0.2,5.2-0.3,7.8-0.4c79.3,0,158.6,0,237.9,0c1.9,0.4,3.3-0.8,4.4-2.2c-5.5,0.5-11.5,2.8-16.7,0.1
	c-3.6-2.2-2.7-6.9-1.2-10.1c-3.7,0.4-8.3,1.8-11.2-1.4c-8.5-8.3-17.1-16.7-24.4-26.1c-2.4-3.5,0.4-7.7,1.6-11.1
	c-3.2,0.2-8,1.7-9.9-1.9c-3.9-8.4-6.8-17.4-6.9-26.7c-0.2-6.4,3.7-13.9,10.7-14.5c33.7-2.9,67.4-6,101.1-8.9
	C378.6,127.7,380.3,127.8,381.6,126.8z M409.1,118.3c-4,2.5-8.5,4.5-12,7.9c6.8-0.7,13.7-1.6,20.6-1.1c2,0.1,3.4,1.6,4.7,3
	c-6.5,4.8-15,4.1-22.5,5c-40.5,3.6-81,7.6-121.6,11.3c-3.2-0.3-5.2,2.8-5.3,5.7c-0.5,7.8,2.3,15.4,5,22.6c3.6-0.2,8-1.5,11,1.3
	c3.9,3.9-0.2,9.2-1.8,13.3c7,8.7,15,16.6,23,24.4c4-0.3,8.5-1.9,12.2,0.5c3.5,2.8,1.5,7.7,0,11.1c5.1-0.3,11.2-2,15.6,1.4
	c2.1,1.7,0.8,4.2,0.2,6.2c40.7-0.3,81.4,0.2,122-0.2c-24.2-12-48.6-23.7-73.2-35.2c-1.9,3.9-4.1,7.6-6,11.5
	c-0.9-8.3,1.3-16.5,4.1-24.2c-15.6-0.6-30.9-3.9-46-7.7c-4.2-1.1-8.4-2.6-12.7-2.9c-4.3-1.9-8.9-3.2-13.5-3.8
	c-1.9-0.4-4.7,0.7-5.2-2.2c-1.4,1.8-2.8,2-4.2,0.7v-1.7l-2.5-0.7l-0.9,1.3c-0.8-2.2-3.6-0.3-5.3-0.6c3.1-3.7,7.1-6.5,11.7-8
	c15.5,5.4,31.3,9.8,47.3,13.4c11.3,2.3,22.7,4.6,34.3,4.1c4.2-9.7,8.9-19.4,15.5-27.6c-3.2,16.5-9.1,32.4-16.1,47.6
	c83.3,2.4,166.5,4.6,249.7,6.9c-6.2-5.8-12.8-11.1-18.8-17.1c8.9,6.1,17.4,12.6,26.2,18.8c4.8,3.1,5.6,9.2,7.3,14.3
	c5.2-6.9,2.1-15.4,1.3-23.1c2,5.1,3.5,10.5,4.3,15.9c0.1,4.5-2.4,8.5-3.1,12.9c0.6,2.6,1.7,5.1,2.3,7.7c5.4,2,11.3,2.4,17,2.9
	c-7.4,2.4-15.3,4.5-23.2,3.3l-1.4-3c-2.8,4.4-5.1,10-10.4,12.1c4.2-3.8,5.4-9.5,7.2-14.6c-8.2,2.7-16.5,6.1-25.4,5.8
	c4.8,5.2,7.7,11.8,10.4,18.2c8.1-0.1,15.1-4.9,19.6-11.4c2.7,3.9,5.5,7.9,8.2,11.8c-2.5-1.2-4.9-2.5-7.4-3.6
	c-4.4,4.6-10.2,7.6-16.5,8.6c-4.2,0.8-8.4-0.4-12.5-0.5c-7-0.8-14.2-2.2-21.2-1.7c-9.2-0.7-18.5-1.1-27.7-1.6
	c-7.5-0.6-15.1-0.9-22.6-1.2c2.9,2.8,6,5.5,9.2,7.9c12.4,10.5,24.7,21.1,37.2,31.5c-3.2,0.9-6.5-0.1-9.7-0.4
	c-79.9-10.3-159.8-20.1-239.6-30.7c-6.6,25.4-10.4,51.5-11.3,77.8c3-3,5.3-6.5,8.1-9.8c-0.5,12.5-1.7,25-1,37.5
	c1.9,61.4,27.6,122.3,72.3,164.7c2.8-2.9,5.6-5.7,8.5-8.5c25.7,25,56,44.8,88,60.8c3.3,1.8,6.7,3.2,10.2,4.3
	c8.3,4.5,17.2,7.7,26,10.9c-16.6-21.1-29.5-45.6-34.6-72.1c-3-14.5-2.6-29.4-0.9-44c3.8,3.9,8.4,6.8,12.6,10.2
	c6.2-11.6,16.7-21.6,29.9-24.4c-7.7-5.2-15.6-9.9-23.8-14.2c-5.6-2.9-11.3-6-17.5-7.4c4.3,8.5,10.8,15.6,15.7,23.8
	c-23.3-16.3-48.3-30.4-74.8-40.8c-5.1-1.9-10.1-4.3-15.5-5c-8-3.4-16.7-4.7-25.2-6.6c8.6-0.7,17.1,1,25.6,2.5
	c23.2,5.1,45.3,14.5,66,26.1c0.2-2.2,0-4.7,1.9-6.2c3.4-3.4,8.5-1.6,12.4-0.3c11.5,4.3,22,10.9,32.5,17.1
	c-10.1-14-22.8-26-35.9-37.1c12.6,5.2,23.8,13.6,33.8,22.8c11.3,10.3,20.5,22.8,27.1,36.6c-3.2,2.7-8.2,3.4-10.7,6.5
	c5.4,2.8,11.3,4.9,16.1,8.8c2.4,1.7,1.9,6.3-1.2,6.8c-4.3,1.2-8.7,1.8-13,3c1.5,1.3,3.3,2.3,5.2,3c18.8,7.5,39,11.4,59.2,12.6
	c5-1.1,9-4.6,13.1-7.5c8.9-6.3,16.9-13.7,25-21c4.3-4.2,11-3.9,16-7.1c2-1.7,1.9-4.5,2.6-6.8c-3.3,0-6.6-0.8-9.5-2.4
	c-3.1,2.1-5.8,6.3-10,5.2c-7-0.8-13.2-4.2-19.1-7.7c0-1-0.1-2.9-0.1-3.9c1.4-3.8,3.7-7.2,5.1-11c-8.3-4.5-17.7-8.2-23.7-15.9
	c1.2-3.3,2.2-6.7,3.1-10.1c-4.1-2.2-8.2-4.6-12.1-7.2c1.4-2.8,2.5-5.8,3.2-8.9c-2.5-1.4-4.9-3-7.3-4.6c1.1,9.5-0.1,20.2,5.7,28.5
	c5.8,9.7,12.1,19.3,20.9,26.6c-6.4-3-11.1-8.6-16.7-12.7c4.7,8.6,9.8,17.2,16.5,24.4c-1.6-0.5-3.2-1-4.8-1.4
	c-5-3.9-10.3-7.8-14.1-13c-13.8-17-17.9-39.8-17.1-61.2c0.9-13.8,2.5-28.8,11.9-39.7c8.2-8.6,17.9-15.4,27.7-22.1
	c1.3-0.8,2.2-2,2.5-3.4c4.3,0.1,8.5,0.3,12.8,0.3c1,1.1,2,2.2,3.1,3.2c3.4,7.5,6.5,16.5,14.7,20c18.2,9,37.8,15.6,58,17.5
	c17.9,1.6,34.6-7.6,47.6-19c5.5-4.1,7.6-10.8,11.1-16.4c-3.5,0.1-6.9-0.2-10.3-1c0.3,1.1,1,3.3,1.3,4.4c-2-1.8-3.8-4-5.2-6.3
	c-5.9-11-9.9-22.8-14.1-34.5c-1.2-3.2-1.8-7.2-5.1-9c-7.6-4.6-15.4-8.6-23.6-12c-10.4-0.9-20.9-0.1-31.1,2.2c-2.9,0.9-6.2,1.6-8,4.3
	c-3.9,5-7.6,10.2-12.2,14.6c3.3-6,6.8-12,10.6-17.7c5.3-5.4,13.4-5.8,20.2-7.9c8-3.3,16-6.6,24.1-9.7c-2.1-1.1-4.2-2.4-6.6-2.7
	c-13.8-0.2-27.3,3.3-40.8,5.4c10.4-3.8,21-7.1,32-8.7c-2.1-1.5-4.5-2.4-7.1-2.6c-9.6-1.1-19.2-2.2-28.9-1.9c9.9-3,20.5-2.9,30.8-2.5
	c9.4,1.8,18.2,5.8,26.9,9.7c2.5,1,5.2,0.8,7.9,1.1c-1.8-1.9-3.7-3.7-5.7-5.5c-14.2-1-27.6-6.9-39.6-14.4
	c-10.2-3.8-21.3-0.2-31.8,0.4c9.6-3,19.5-6.3,29.7-5.8c3.7-0.1,6.6,2.5,9.6,4.2c8.6,5,18.1,8.9,28,10.2
	c-11.7-13.9-26.2-25.1-40.4-36.2c-5.6-4.6-12.3-8.1-16-14.6c-0.3,3.1-0.6,6.3-1.2,9.4c-1.4,2.6-3.7,4.5-5.7,6.6
	c3.4-8.7,1.2-18.1,0.6-27.1c-0.1-5.8-2.9-11.1-7.5-14.6c-11.9-9.2-24.4-17.6-36.8-25.9c-6.1-3.8-12-8.5-19.2-9.9
	c-9.6-2.1-19.2-4.3-29-6c-28.8-4.7-57.7-9.5-85.8-17.3c14.4,1.2,28.6,4.6,43,5.9c-7.7-3.8-15.8-6.7-23.7-10.2
	c-7.3-2.8-14.1-7-21.8-8.7c-18-3.8-35.8-8.3-53.7-12.1C437.7,102.8,423.1,110.4,409.1,118.3z M422.5,203.4l3.9,2.2
	c22.8,10.9,45.5,21.8,68.2,32.9c-93.4,0-186.7,0-280.1,0c-2.7,0-5.3,0.2-8,0.4c122.4,15.4,244.8,31.3,367.2,46.6
	c-13.9-12.1-28.3-23.8-42.1-36c30.7,1.6,61.4,2.6,92,5.1c-2-6-3.8-12.5-8.1-17.3c-5-1.7-10.3-2.6-15.2-4.8
	c10.1-2.2,20.8-1.2,30.6-4.9c5.5-2,10.9-4.1,16.6-5.7c-0.5-4.3-1.3-8.5-2.6-12.6C570.8,207.4,496.6,205.4,422.5,203.4z M749.4,277.3
	c-5,1.9-10.2,2.9-14.9,5.1c4,0.3,8.4-0.8,12.1,1.3c9.2,4.7,18.9,9,26.8,15.9c-1.2-6.4-4.5-12-7.7-17.5c10.1,7.9,11.9,21.5,14.3,33.3
	c6.1-0.2,12.2-0.3,18.3,0c4.2,3.7,8,7.9,12.7,11c0.3-0.6,0.9-1.9,1.2-2.5c-2.2-4.9-6.1-8.8-9.1-13.1c-5.3-6.6-10.1-13.8-17.1-18.7
	c-6.3-4.7-12.5-9.7-18.9-14.2C761.3,276.2,755,274.8,749.4,277.3L749.4,277.3z M780.3,318.4c1.6,8.4,6.7,15.5,9.5,23.5
	c4.1,1,10,3.5,13-0.7c-3.5,0.1-7.1,0.3-10.7,0.4c-2.5-6.4-5.4-12.9-6.2-19.8c3.5-0.2,7.1-0.2,10.7,0.1c2.9,4.3,7,9.5,12.8,8.8
	c-3.7-4.7-8.8-8.1-12.9-12.4C791.2,318.2,785.7,318.3,780.3,318.4L780.3,318.4z M636.8,365.2c6.3,4.9,12.1,10.3,17.5,16.2
	c2.8,3.2,5.4,7,5.4,11.5c0.2,10.2,1,20.5,2.6,30.6c1.5,10.1,3.4,20.4,8,29.6c12.8-6,24.2-14.4,35.8-22.3c0.6-2.1,1.2-4.3,1.8-6.4
	c-11.9,5.8-24.3,10.3-36.5,15.5c11.4-14,23.3-27.6,33-42.8c1.9-4.6,1.9-9.8,3-14.7c-10.8-3.8-21.6-7.8-31.5-13.7
	c-7.8-4.7-10.7-13.8-14.6-21.5l-1-0.3C652.1,352.5,644.5,359,636.8,365.2z M620.7,403.4c3.5,6.1,10.5,9,16.6,12
	c-1.2,3.2-2.4,6.4-3.5,9.6c3.5,2.1,7.1,4.2,10.7,6.3c-0.5,4.3-1.3,8.6-2.5,12.7c6.7,4.3,13.6,8.2,20.8,11.7
	c-7.5-16.8-9.3-35.5-10.6-53.7c-0.6-4.5,0.8-9.7-2.2-13.5c-5.2-6.9-12.2-12.3-18.8-17.8C623,379.3,621.5,392,620.7,403.4
	L620.7,403.4z M715,384.6c-1,5-1.3,10.1-3,14.9c-4.2,7.6-9.7,14.5-15.1,21.3c7.9-3.8,16-7.1,23.2-12.1c8-6.1,15.6-12.7,23.2-19.3
	C733.8,389,724.3,387.3,715,384.6z M715.8,420.8c7.5-3.6,14.6-7.8,21.3-12.7c6.6-5.7,12.2-12.5,17.8-19.1
	C742.7,400.5,730.2,412,715.8,420.8z M667.6,462.8c-4.2,1.3-5.2,6.2-7.5,9.4c3.9,1.5,7.7,4,12,3.6c6.7-5.1,12.9-10.9,18.6-17.1
	c3.5-4,7.1-8.2,8.4-13.5C689,451.6,678.9,458.5,667.6,462.8L667.6,462.8z M704.8,452.3c-4.2,8.3-11.1,14.7-17.6,21.2
	c2.1-0.1,4.1-1,5.5-2.6c6.5-7,13.5-13.8,17.9-22.4C708.5,449.6,705.7,450,704.8,452.3L704.8,452.3z"/>
<path d="M671.5,269.8c2.3,3,2.8,7.1,2.3,10.8c-2.3,5.1-6.7,9-12,10.8c1.6-5.9,6-10.4,7.6-16.2C670,273.3,670.7,271.5,671.5,269.8z"
	/>
<path d="M676.2,276.3c2.1,4.4,3.5,9.4,2.8,14.4c-4.4,6.6-11.5,12.3-19.7,13c4.8-5.1,9.9-10,14.4-15.3
	C674.8,284.4,675.1,280.3,676.2,276.3z"/>
<path d="M668.2,311.6c9.1,1.2,18.1,2.9,27.1,5c5.2-0.9,10.3-2,15.5-2.4c3.3,1.9,6.3,4.4,8.8,7.2c-3-1.4-5.9-2.9-8.8-4.4
	c-2.3,0.5-4.6,0.9-6.8,1.4c3.7,2.1,8,2.5,11.9,4c14.7,4.9,29.3,9.9,43.2,16.9c-19.9-6.7-39.5-14.5-59.9-19.6
	c-6.9,0.8-13.6,3.1-20.6,2.7c4.4-1.7,9-3.1,13.5-4.7C684.2,315.1,676,313.9,668.2,311.6z"/>
<path d="M729.4,315.1c13.1,3.4,25.8,11,33.4,22.4C753.5,327.7,741.4,321.2,729.4,315.1z"/>
<path d="M607.8,323.2c22.9-0.6,45.6,2.9,68.3,4.9c3.9-0.9,7.5-2.7,11.3-4l-4.9,5c26.1,3.5,52.3,7.4,77.9,13.5
	c-26.5-4.5-53-8.3-79.6-11.9c-4.1,3.2-8,6.7-11.9,10.1l-1.9-1.8c-3.1,2-6.9,1.4-10.4,1.4c0.3-0.5,1-1.6,1.3-2.2
	c4.9-3.1,10.1-5.6,15.1-8.5C651.4,326.9,629.7,324.6,607.8,323.2z"/>
<path d="M682.5,351c25.8-2.9,51.8-2.2,77.7-0.4c-5.5,0.7-11,0.3-16.4,0.4C723.4,351,703,351,682.5,351z"/>
<path d="M613.4,469.6c5.1,4.7,9.9,9.8,14.3,15.2c1.1,1.6,3,2.1,4.8,2.6c9.3,2.4,18.7,4.6,28.4,4.4c-9.8,6.5-22.6,5.7-33.3,2.1
	c-4.1-1.1-5.9-5.4-7.9-8.7C617,480.2,614.9,475,613.4,469.6z"/>
<path class="st1" d="M409.1,118.3c14-7.9,28.6-15.5,44.5-18.5c17.9,3.8,35.7,8.4,53.7,12.1c7.7,1.7,14.4,5.9,21.8,8.7
	c7.8,3.6,15.9,6.4,23.7,10.2c-14.4-1.3-28.6-4.6-43-5.9c28.1,7.8,57,12.6,85.8,17.3c9.7,1.7,19.3,3.9,29,6
	c7.2,1.5,13.1,6.1,19.2,9.9c12.5,8.4,25,16.8,36.8,25.9c4.7,3.4,7.5,8.8,7.7,14.6c0.6,9,2.8,18.4-0.6,27.1c2-2.1,4.3-4,5.7-6.6
	c0.7-3.1,0.9-6.2,1.2-9.4c3.7,6.4,10.4,10,16,14.6c14.3,11.1,28.7,22.3,40.4,36.2c-9.9-1.4-19.4-5.2-28-10.2
	c-3.1-1.7-5.9-4.4-9.6-4.2c-10.2-0.5-20.1,2.8-29.7,5.8c10.5-0.6,21.5-4.2,31.8-0.4c12,7.5,25.3,13.5,39.6,14.4
	c2,1.8,3.9,3.6,5.7,5.5c-2.7-0.3-5.4-0.1-7.9-1.1c-8.7-3.9-17.5-7.9-26.9-9.7c-10.3-0.4-20.8-0.5-30.8,2.5
	c9.7-0.3,19.3,0.7,28.9,1.9c2.6,0.2,5,1.2,7.1,2.6c-11,1.6-21.6,4.9-32,8.7c13.5-2.1,27-5.7,40.8-5.4c2.4,0.3,4.5,1.6,6.6,2.7
	c-8.1,3.1-16.1,6.4-24.1,9.7c-6.8,2.1-14.9,2.5-20.2,7.9c-3.8,5.7-7.3,11.7-10.6,17.7c4.6-4.4,8.3-9.6,12.2-14.6
	c1.8-2.7,5.1-3.4,8-4.3c10.2-2.3,20.7-3,31.1-2.2c8.2,3.4,16.1,7.4,23.6,12c3.4,1.8,3.9,5.7,5.1,9c4.2,11.7,8.2,23.5,14.1,34.5
	c1.4,2.3,3.2,4.5,5.2,6.3c-0.3-1.1-1-3.3-1.3-4.4c3.4,0.8,6.8,1.1,10.3,1c-3.5,5.6-5.7,12.3-11.1,16.4c-13,11.4-29.7,20.7-47.6,19
	c-20.2-1.9-39.9-8.5-58-17.5c-8.1-3.5-11.3-12.5-14.7-20c0-0.5,0.1-1.4,0.1-1.9c9.7,0.2,19.4,1.2,29.1,0.9
	c8.1-0.4,16.2,1.4,24.3,1.3c12.5,0.4,24.9,2.7,37.3,2c-16.7-3.4-33.9-3.8-50.8-5.2c-7.4-1-14.9-0.3-22.3-1
	c-5.8-0.2-11.8-1.8-17.3,0.7c3.9-3.4,7.8-6.8,11.9-10.1c26.5,3.5,53,7.4,79.5,11.8c-25.7-6.1-51.8-9.9-77.9-13.5l4.9-5
	c-3.8,1.3-7.4,3.1-11.3,4c-22.7-2.1-45.5-5.6-68.3-4.9c21.8,1.4,43.6,3.8,65.3,6.6c-5,2.9-10.2,5.4-15.1,8.5
	c-13.8,2.4-28-0.2-42,1.9c-15.9,0.4-31.8,1.6-47.6,3.6c10.7,1.7,21.4-0.9,32.2-0.8c15.5,0.3,30.9-2.1,46.4-1
	c-7.5,4.5-15.5,8.2-22.7,13.3s-14.8,10.1-19.1,17.9c-4.7,8.7-6,18.8-6.7,28.5c-0.9,20.1,3,41.2,14.3,58.2
	c6.8,9.7,16.7,18.3,28.9,19.9c1.6,0.4,3.2,0.9,4.8,1.4c-6.8-7.2-11.8-15.8-16.5-24.4c5.6,4.1,10.3,9.7,16.7,12.7
	c1.6,0.9,3.3,1.7,5,2.6c0,1,0,2.9,0.1,3.9c5.9,3.6,12.2,7,19.1,7.7c4.2,1.1,6.9-3.1,10-5.2c2.9,1.6,6.2,2.4,9.5,2.4
	c-0.7,2.3-0.5,5.1-2.6,6.8c-4.9,3.2-11.6,2.8-16,7.1c-8.1,7.3-16.1,14.7-25,21c-19.9-0.9-39.7-3.4-59.3-7.4c3.1-2.1,8.8-3.5,7.9-8.3
	c-2.6-8.3-11.3-11.9-17.3-17.5c-6.6-13.8-15.8-26.3-27.1-36.6c-10-9.2-21.2-17.5-33.8-22.8c13.2,11.1,25.8,23.1,35.9,37.1
	c-10.5-6.2-21-12.8-32.5-17.1c-3.9-1.3-9.1-3.1-12.4,0.3c-1.9,1.5-1.8,4.1-1.9,6.2c-20.6-11.6-42.7-21.1-66-26.1
	c-8.4-1.5-17-3.2-25.6-2.5c8.4,1.9,17.2,3.2,25.2,6.6c5.1,3.9,11.3,5.6,17,8.4c14.1,6.6,27.8,14.3,39.3,24.9
	c7.3,6.9,13.8,15,17.2,24.5c-1.7,14.6-2,29.5,0.9,44c5.1,26.5,18,51,34.5,72.1c-8.8-3.2-17.7-6.4-26-10.9
	c-7.4-6.1-15.6-11.2-23.1-17.1c-21.2-16.5-41.1-34.6-60.3-53.4c-4.7-4.4-8.9-9.3-13.9-13.4c-3.4,2.1-6.8,4.1-10.3,6.1
	c-15-12.9-25.7-30.1-32.5-48.6c-9.7-26.2-13.1-54.4-13-82.2c-0.2-21.4,1.6-42.9,5.3-64c-5,1.3-9.9,2.5-14.8,3.8
	c1.7-11.1,4.6-21.9,8.6-32.4c67.4,1.5,134.8,4,202.3,5.6c9.2-0.2,18.4,0.4,27.6,1.6c-0.3-0.4-0.8-1.2-1.1-1.7
	c-12.5-10.4-24.9-20.9-37.2-31.5c13.8-1.2,27.6-1.4,41.5-2.1c6.9-1,13.8-1.5,20.8-1.3c4.2,0.1,8.4,1.3,12.5,0.5
	c6.3-1,12.1-4,16.5-8.6c2.5,1.1,4.9,2.4,7.4,3.6c-2.7-3.9-5.5-7.9-8.2-11.8c0-2.4,0-4.8-0.2-7.2c7.9,1.2,15.7-0.9,23.2-3.3
	c-5.8-0.5-11.6-0.9-17-2.9c-0.6-2.6-1.7-5.1-2.3-7.7c0.7-4.4,3.2-8.4,3.1-12.9c-0.8-5.5-2.3-10.8-4.3-15.9
	c0.8,7.7,3.9,16.3-1.3,23.1c-1.7-5-2.5-11.1-7.3-14.3c-8.8-6.2-17.3-12.7-26.2-18.8c6,6,12.6,11.3,18.8,17.1
	c-83.2-2.3-166.5-4.6-249.7-6.9c7-15.2,12.9-31.1,16.1-47.6c-6.6,8.3-11.3,18-15.5,27.6c-11.6,0.5-23-1.8-34.3-4.1
	c-16-3.6-31.8-8.1-47.3-13.4c-4.6,1.5-8.6,4.3-11.7,8c1.7,0.3,4.5-1.7,5.3,0.6l0.9-1.3l2.5,0.7v1.7c1.4,1.3,2.8,1.1,4.2-0.7
	c0.5,2.9,3.3,1.8,5.2,2.2c4.7,0.6,9.2,1.8,13.5,3.8c13.3,5.6,27.4,8.7,41.3,12.5c3.2,1,6.9,2.9,7.1,6.6c-0.6,4.2-3,8.1-3.3,12.4
	c-0.5,6.3,0.6,12.6,3.1,18.3c2.1-5,4.1-10.1,6.3-15.1c1.9-3.8,4.1-7.6,6-11.5c24.5,11.4,48.9,23.2,73.2,35.2
	c-40.7,0.4-81.4,0-122,0.2c0.6-2.1,1.9-4.6-0.2-6.2c-4.4-3.5-10.4-1.7-15.6-1.5c1.4-3.4,3.4-8.3,0-11.1c-3.6-2.4-8.2-0.8-12.2-0.5
	c-8-7.8-16-15.7-23-24.4c1.5-4.1,5.6-9.4,1.8-13.3c-3-2.8-7.4-1.5-11-1.3c-2.8-7.2-5.5-14.8-5.1-22.6c0.1-2.9,2.1-6,5.3-5.7
	c40.5-3.7,81-7.7,121.6-11.3c7.6-0.9,16.1-0.3,22.5-5c-1.3-1.3-2.7-2.9-4.7-3c-6.9-0.6-13.8,0.4-20.6,1.1
	C400.6,122.8,405,120.8,409.1,118.3z M671.5,269.8c-0.7,1.8-1.4,3.5-2,5.3c-1.7,5.8-6,10.4-7.6,16.2c5.3-1.8,9.7-5.7,12-10.8
	C674.3,276.9,673.8,272.8,671.5,269.8z M676.2,276.3c-1.1,4-1.4,8.1-2.5,12c-4.5,5.4-9.6,10.2-14.4,15.3c8.2-0.7,15.3-6.4,19.7-13
	C679.8,285.8,678.3,280.8,676.2,276.3L676.2,276.3z M668.2,311.6c7.8,2.4,16,3.5,23.8,5.9c-4.5,1.6-9,3-13.5,4.7
	c7,0.5,13.7-1.9,20.6-2.7c20.4,5.1,40,12.9,59.9,19.6c-13.9-6.9-28.5-11.9-43.2-16.8c-3.9-1.4-8.3-1.9-11.9-4c2.2-0.5,4.5-1,6.8-1.4
	c2.9,1.5,5.8,3,8.8,4.4c-2.5-2.8-5.5-5.3-8.8-7.2c-5.2,0.4-10.3,1.6-15.5,2.4C686.4,314.5,677.3,312.8,668.2,311.6L668.2,311.6z
	 M729.5,315.1c11.9,6.1,24,12.5,33.4,22.4C755.2,326.1,742.5,318.5,729.5,315.1L729.5,315.1z M682.6,351c20.4,0,40.8,0,61.2,0
	c5.5-0.1,11,0.3,16.4-0.4C734.4,348.8,708.3,348.2,682.6,351L682.6,351z M613.4,469.6c1.5,5.4,3.6,10.6,6.2,15.5
	c2,3.3,3.8,7.6,7.9,8.7c10.7,3.6,23.5,4.5,33.3-2.1c-9.7,0.2-19.1-2-28.4-4.4c-1.8-0.5-3.7-1-4.8-2.6
	C623.3,479.4,618.6,474.3,613.4,469.6z"/>
<path class="st1" d="M554.2,257.6c6.5-0.6,13.1-0.1,19.6-0.2c9.2,0.5,18.5,0.9,27.7,1.6c-2.8,0.8-5.6,1.3-8.5,1.3
	c-10-0.1-20.1-0.7-30.1-0.8C559.9,259.2,556.7,259.5,554.2,257.6z"/>
<path class="st1" d="M749.4,277.3c5.6-2.4,11.9-1.1,17.6,0.5c6.5,4.5,12.6,9.5,18.9,14.2c7,4.9,11.8,12.2,17.1,18.7
	c3,4.4,6.9,8.2,9.1,13.1c-0.3,0.6-0.9,1.9-1.2,2.5c-4.6-3.1-8.5-7.3-12.7-11c-6.1-0.3-12.2-0.2-18.3,0c-2.4-11.8-4.2-25.4-14.3-33.3
	c3.2,5.5,6.5,11.1,7.7,17.5c-7.9-6.9-17.5-11.2-26.8-15.9c-3.7-2.1-8.1-1-12.1-1.3C739.2,280.1,744.5,279.1,749.4,277.3z"/>
<path class="st2" d="M326.6,172.1c4.4,0.3,8.5,1.8,12.7,2.9c15.1,3.8,30.4,7.1,46,7.7c-2.8,7.7-5,15.9-4.1,24.2
	c-2.2,5-4.2,10.1-6.3,15.1c-2.5-5.8-3.6-12.1-3.1-18.3c0.3-4.3,2.7-8.2,3.3-12.4c-0.2-3.8-4-5.7-7.1-6.6
	C354,180.9,339.9,177.7,326.6,172.1z"/>
<path class="st2" d="M551.2,256.1c7.5,0.3,15.1,0.7,22.6,1.2c-6.6,0.1-13.1-0.4-19.6,0.2c2.5,1.9,5.7,1.7,8.7,1.8
	c10,0.1,20.1,0.8,30.1,0.8c2.9,0,5.8-0.4,8.5-1.3c7.1-0.5,14.2,1,21.2,1.7c-7-0.2-13.9,0.3-20.8,1.3c-13.8,0.7-27.7,0.9-41.5,2.1
	C557.3,261.6,554.2,258.9,551.2,256.1z"/>
<path class="st2" d="M337,342.3c0.9-26.3,4.7-52.4,11.3-77.8c79.8,10.5,159.8,20.4,239.6,30.7c3.2,0.2,6.5,1.2,9.7,0.4
	c0.3,0.4,0.8,1.3,1.1,1.7c-9.1-1.2-18.4-1.7-27.6-1.5c-67.4-1.6-134.8-4.1-202.3-5.6c-4,10.5-6.8,21.3-8.6,32.4
	c4.9-1.3,9.9-2.6,14.8-3.8c-3.7,21.1-5.5,42.6-5.3,64c-0.1,27.8,3.3,56,13,82.2c6.8,18.4,17.5,35.7,32.5,48.6c3.5-2,6.9-4,10.3-6.1
	c5,4.1,9.2,8.9,13.9,13.4c19.2,18.7,39.2,36.8,60.3,53.4c7.5,6,15.7,11,23.1,17.1c-3.6-1.1-7-2.5-10.2-4.3c-32-16-62.3-35.8-88-60.8
	c-2.9,2.8-5.7,5.6-8.5,8.5c-44.7-42.5-70.4-103.4-72.3-164.7c-0.7-12.5,0.6-25,1-37.5C342.4,335.7,340.1,339.3,337,342.3z"/>
<path class="st2" d="M616.1,340.2c13.9-2.2,28.1,0.5,42-1.9c-0.3,0.5-1,1.6-1.3,2.2c3.5,0,7.3,0.6,10.4-1.4l1.9,1.8
	c5.5-2.5,11.5-0.9,17.3-0.7c7.4,0.8,14.9,0,22.3,1c16.9,1.5,34.1,1.9,50.8,5.2c-12.5,0.7-24.9-1.6-37.3-2
	c-8.1,0.2-16.2-1.6-24.3-1.3c-9.7,0.3-19.4-0.7-29.1-0.9c0,0.5-0.1,1.4-0.1,1.9c-1-1.1-2.1-2.2-3.1-3.2c-4.3,0-8.5-0.1-12.8-0.3
	c-0.4,1.4-1.3,2.6-2.5,3.4c-9.7,6.7-19.5,13.5-27.7,22.1c-9.4,10.8-11,25.9-11.9,39.7c-0.7,21.4,3.3,44.1,17.1,61.2
	c3.8,5.2,9.1,9,14.1,13c-12.2-1.6-22.1-10.2-28.9-19.9c-11.3-17-15.1-38-14.3-58.2c0.7-9.7,2-19.8,6.7-28.5
	c4.3-7.9,11.9-12.9,19.1-17.9s15.2-8.8,22.7-13.3c-15.5-1.1-30.9,1.3-46.4,1c-10.8-0.2-21.5,2.5-32.2,0.8
	C584.3,341.8,600.2,340.6,616.1,340.2z"/>
<path class="st2" d="M440.2,428.2c5.5,0.6,10.5,3.1,15.5,5c26.5,10.4,51.5,24.5,74.8,40.8c-4.9-8.1-11.3-15.3-15.7-23.8
	c6.2,1.4,11.8,4.5,17.5,7.4c8.2,4.3,16.1,9,23.8,14.2c-13.2,2.8-23.7,12.8-29.9,24.4c-4.2-3.3-8.8-6.3-12.6-10.1
	c-3.4-9.5-9.9-17.6-17.2-24.5c-11.4-10.6-25.2-18.4-39.3-24.9C451.5,433.8,445.3,432,440.2,428.2z"/>
<path class="st2" d="M578.3,482.9c5.9,5.5,14.6,9.2,17.3,17.4c0.9,4.7-4.8,6.2-7.9,8.3c19.5,4,39.3,6.5,59.3,7.4
	c-4.1,2.9-8.1,6.4-13.1,7.5c-20.2-1.2-40.4-5.1-59.2-12.6c-1.9-0.7-3.7-1.7-5.2-3c4.3-1.1,8.7-1.8,13-3c3.1-0.5,3.6-5.1,1.2-6.8
	c-4.8-3.9-10.7-6-16.1-8.8C570.1,486.3,575.1,485.6,578.3,482.9z"/>
<path class="st3" d="M422.5,203.4c74.1,1.9,148.3,3.9,222.4,6c1.3,4.1,2.1,8.3,2.6,12.6c-5.6,1.6-11.1,3.7-16.6,5.7
	c-9.8,3.7-20.5,2.7-30.6,4.9c4.9,2.1,10.2,3,15.2,4.7c4.3,4.8,6.2,11.2,8.1,17.3c-30.6-2.5-61.3-3.5-92-5.1
	c13.9,12.2,28.2,23.8,42.1,36c-122.4-15.3-244.8-31.2-367.2-46.5c2.6-0.2,5.3-0.3,8-0.4c93.3,0,186.7,0,280.1,0
	c-22.7-11.1-45.5-22-68.2-32.9L422.5,203.4z"/>
<path class="st3" d="M780.3,318.4c5.4-0.1,10.8-0.2,16.3-0.1c4.2,4.3,9.2,7.7,12.9,12.4c-5.8,0.7-9.9-4.5-12.8-8.8
	c-3.5-0.3-7.1-0.3-10.7-0.1c0.8,6.9,3.7,13.4,6.2,19.8c3.5-0.1,7.1-0.3,10.7-0.4c-3,4.2-8.9,1.7-13,0.7
	C787,333.9,781.9,326.8,780.3,318.4z"/>
<path class="st3" d="M620.7,403.5c0.8-11.4,2.3-24.1,10.5-32.8c6.6,5.5,13.5,10.9,18.8,17.8c3.1,3.8,1.6,9,2.2,13.5
	c1.3,18.2,3.1,36.9,10.6,53.7c-7.2-3.4-14.1-7.3-20.8-11.7c1.2-4.2,2-8.4,2.5-12.7c-3.6-2-7.2-4.2-10.7-6.3c1.1-3.2,2.2-6.4,3.5-9.6
	C631.2,412.5,624.2,409.5,620.7,403.5z"/>
</svg>
